<?xml version="1.0" standalone="no"?><!DOCTYPE svg PUBLIC "-//W3C//DTD SVG 1.1//EN" "http://www.w3.org/Graphics/SVG/1.1/DTD/svg11.dtd"><svg height="1354" node-id="1" sillyvg="true" template-height="1354" template-width="1355" version="1.1" viewBox="0 0 1355 1354" width="1355" xmlns="http://www.w3.org/2000/svg" xmlns:xlink="http://www.w3.org/1999/xlink"><defs node-id="66"><clipPath id="clip0_386_804" node-id="63"><path d="M 0.00 0.00 L 1354.70 0.00 L 1354.70 1353.30 L 0.00 1353.30 Z" fill="#000000" fill-rule="nonzero" node-id="69" stroke="none" target-height="1353.3" target-width="1354.7" target-x="0" target-y="0"></path></clipPath></defs><g clip-path="url(#clip0_386_804)" id="sillyvg_g_0" node-id="73"><path d="M 0.00 0.00 L 1354.70 0.00 L 1354.70 1353.30 L 0.00 1353.30 L 0.00 0.00 Z M 555.20 215.20 L 533.60 223.30 L 512.60 232.90 L 492.40 243.90 L 472.90 256.20 L 454.30 269.80 L 436.70 284.70 L 426.50 294.50 L 416.70 304.80 L 407.30 315.30 L 385.30 341.70 L 360.60 373.70 L 335.10 408.30 L 322.20 427.00 L 309.70 446.00 L 300.70 460.50 L 292.10 475.30 L 283.90 490.20 L 276.10 505.40 L 265.90 527.50 L 261.40 538.80 L 257.30 550.30 L 252.90 565.90 L 251.30 573.90 L 249.40 584.50 L 248.20 595.10 L 247.60 605.90 L 247.50 616.60 L 248.10 627.30 L 249.20 638.00 L 250.90 648.60 L 253.10 659.10 L 255.90 669.50 L 259.10 679.40 L 262.70 689.20 L 266.70 698.90 L 271.20 708.30 L 276.10 717.50 L 281.70 726.40 L 287.00 734.00 L 292.70 741.30 L 298.80 748.20 L 305.40 754.80 L 312.30 760.90 L 319.60 766.70 L 327.10 772.10 L 335.00 777.00 L 343.60 781.80 L 352.50 786.00 L 361.50 789.70 L 370.70 793.00 L 380.10 795.80 L 399.20 800.40 L 418.60 803.70 L 433.20 805.50 L 447.80 806.80 L 447.60 811.50 L 444.90 830.00 L 437.80 891.50 L 432.70 945.50 L 431.50 952.30 L 430.80 953.80 L 429.70 955.00 L 427.70 956.50 L 425.30 957.60 L 420.30 958.40 L 416.30 956.30 L 405.30 946.30 L 400.60 942.70 L 395.70 939.50 L 390.40 936.70 L 385.00 934.30 L 379.40 932.40 L 373.70 930.90 L 367.80 929.80 L 361.90 929.20 L 356.00 929.10 L 350.10 929.40 L 344.20 930.10 L 338.40 931.40 L 332.80 933.10 L 327.30 935.30 L 322.00 938.10 L 317.20 941.20 L 308.40 948.30 L 300.60 956.60 L 297.20 961.10 L 294.10 965.80 L 291.40 970.80 L 289.00 975.90 L 287.00 981.20 L 285.50 986.70 L 283.60 997.80 L 283.30 1003.30 L 283.40 1008.80 L 284.00 1014.20 L 284.90 1019.70 L 287.90 1030.30 L 289.90 1035.40 L 293.20 1042.30 L 296.90 1048.80 L 301.00 1055.10 L 310.20 1067.10 L 315.20 1072.70 L 323.20 1080.80 L 331.40 1088.60 L 340.20 1096.20 L 349.20 1103.60 L 358.50 1110.60 L 368.10 1117.20 L 378.00 1123.30 L 388.20 1129.00 L 394.10 1131.90 L 406.50 1136.70 L 412.90 1138.60 L 419.40 1139.90 L 425.90 1140.80 L 432.50 1141.20 L 439.10 1141.00 L 445.80 1140.10 L 453.10 1138.10 L 460.30 1135.40 L 467.30 1132.30 L 481.40 1125.10 L 486.60 1123.80 L 489.30 1123.80 L 522.10 1128.20 L 557.50 1133.80 L 562.50 1135.90 L 576.00 1145.30 L 581.30 1148.20 L 586.80 1150.70 L 592.40 1152.80 L 598.20 1154.40 L 604.10 1155.70 L 616.00 1157.00 L 622.10 1157.10 L 628.10 1156.80 L 640.00 1155.10 L 650.80 1152.50 L 665.70 1148.20 L 672.50 1147.30 L 696.00 1147.10 L 701.00 1147.60 L 717.60 1151.40 L 729.40 1153.60 L 735.30 1154.20 L 750.40 1154.10 L 809.30 1150.50 L 873.20 1147.10 L 903.40 1145.10 L 984.00 1141.20 L 997.30 1139.40 L 1008.50 1136.50 L 1017.70 1132.60 L 1022.20 1130.20 L 1026.10 1127.30 L 1029.60 1124.20 L 1032.90 1120.70 L 1035.80 1117.00 L 1039.20 1111.70 L 1042.10 1106.10 L 1044.60 1100.20 L 1046.60 1094.10 L 1049.60 1081.80 L 1050.20 1074.90 L 1050.30 1060.90 L 1049.10 1030.70 L 1049.20 1012.00 L 1050.00 998.00 L 1051.40 984.10 L 1052.30 976.80 L 1053.60 969.50 L 1054.80 964.80 L 1058.30 955.60 L 1060.30 952.20 L 1062.70 949.10 L 1073.20 937.20 L 1075.70 933.00 L 1077.60 928.50 L 1080.50 919.20 L 1088.70 883.40 L 1093.20 862.30 L 1094.10 855.20 L 1094.30 850.50 L 1094.10 845.70 L 1093.50 840.90 L 1092.10 835.80 L 1090.40 830.90 L 1088.30 826.30 L 1085.80 821.70 L 1081.90 816.00 L 1077.60 810.60 L 1072.70 805.60 L 1067.50 801.00 L 1062.00 796.90 L 1056.20 793.20 L 1052.70 791.30 L 1045.40 788.70 L 1039.70 787.40 L 1033.90 786.60 L 1028.10 786.20 L 1010.50 785.90 L 1012.10 784.00 L 1014.00 782.40 L 1029.50 773.30 L 1036.00 768.90 L 1042.10 764.10 L 1048.00 758.90 L 1053.70 753.50 L 1064.10 741.80 L 1073.30 729.10 L 1081.20 715.60 L 1084.60 708.50 L 1090.50 693.90 L 1094.80 678.90 L 1097.10 667.90 L 1098.80 656.70 L 1100.00 645.50 L 1100.40 637.00 L 1100.20 620.10 L 1098.40 597.00 L 1096.90 582.30 L 1094.00 562.90 L 1089.60 544.30 L 1086.90 535.50 L 1083.70 526.80 L 1080.10 518.20 L 1076.10 509.80 L 1071.70 501.60 L 1061.10 483.10 L 1050.00 464.90 L 1027.10 428.80 L 991.50 375.60 L 976.60 352.00 L 968.00 339.60 L 955.80 323.70 L 949.30 316.00 L 940.10 306.20 L 930.60 296.70 L 920.80 287.60 L 910.60 278.90 L 900.10 270.60 L 889.20 262.70 L 878.10 255.20 L 866.70 248.20 L 855.00 241.60 L 843.10 235.40 L 830.90 229.70 L 818.60 224.40 L 806.10 219.70 L 793.40 215.40 L 780.50 211.50 L 767.30 207.90 L 754.00 204.80 L 740.60 202.10 L 727.10 199.90 L 713.60 198.10 L 700.00 196.70 L 687.80 196.10 L 663.30 196.10 L 638.90 197.60 L 626.70 199.00 L 602.50 202.80 L 590.60 205.40 L 578.70 208.30 L 566.90 211.60 L 555.20 215.20 Z" fill="#e2b665" fill-rule="nonzero" node-id="75" stroke="none" target-height="1353.3" target-width="1354.7" target-x="0" target-y="0"></path><path d="M 555.20 215.20 L 566.90 211.60 L 578.70 208.30 L 590.50 205.40 L 602.50 202.80 L 626.70 199.00 L 638.90 197.60 L 663.30 196.10 L 687.80 196.10 L 700.00 196.70 L 713.60 198.10 L 727.10 199.90 L 740.60 202.10 L 754.00 204.80 L 767.30 207.90 L 780.50 211.50 L 793.40 215.40 L 806.10 219.70 L 818.60 224.40 L 830.90 229.70 L 843.10 235.40 L 855.00 241.60 L 866.70 248.20 L 878.10 255.20 L 889.20 262.70 L 900.10 270.60 L 910.60 278.90 L 920.80 287.60 L 930.60 296.70 L 940.10 306.20 L 949.30 316.00 L 955.80 323.70 L 968.00 339.60 L 976.60 352.00 L 991.50 375.60 L 1027.10 428.80 L 1050.00 464.90 L 1061.10 483.10 L 1071.70 501.60 L 1076.10 509.80 L 1080.10 518.20 L 1083.70 526.80 L 1086.90 535.50 L 1089.60 544.30 L 1094.00 562.90 L 1096.90 582.30 L 1098.40 597.00 L 1100.20 620.10 L 1100.40 637.00 L 1100.00 645.50 L 1098.80 656.70 L 1097.10 667.90 L 1094.80 678.90 L 1090.50 693.90 L 1084.60 708.50 L 1081.20 715.60 L 1073.30 729.10 L 1064.10 741.80 L 1053.70 753.50 L 1048.00 758.90 L 1042.10 764.10 L 1036.00 768.90 L 1029.50 773.30 L 1014.00 782.40 L 1012.10 784.00 L 1010.50 785.90 L 1028.10 786.20 L 1033.90 786.60 L 1039.70 787.40 L 1045.40 788.70 L 1052.70 791.30 L 1056.20 793.20 L 1062.00 796.90 L 1067.50 801.00 L 1072.70 805.60 L 1077.60 810.60 L 1081.90 816.00 L 1085.80 821.70 L 1088.30 826.30 L 1090.40 830.90 L 1092.10 835.80 L 1093.50 840.90 L 1094.10 845.70 L 1094.30 850.50 L 1094.10 855.20 L 1093.20 862.30 L 1088.70 883.40 L 1080.50 919.20 L 1077.60 928.50 L 1075.70 933.00 L 1073.20 937.20 L 1062.70 949.10 L 1060.30 952.20 L 1058.30 955.60 L 1056.40 960.10 L 1053.60 969.50 L 1052.30 976.80 L 1051.40 984.10 L 1050.00 998.00 L 1049.20 1012.00 L 1049.10 1030.70 L 1050.30 1060.90 L 1050.20 1074.90 L 1049.60 1081.80 L 1046.60 1094.10 L 1044.60 1100.20 L 1042.10 1106.10 L 1039.20 1111.70 L 1035.80 1117.00 L 1032.90 1120.70 L 1029.60 1124.20 L 1026.10 1127.30 L 1022.20 1130.20 L 1017.70 1132.60 L 1008.50 1136.50 L 997.30 1139.40 L 990.70 1140.50 L 984.00 1141.20 L 903.40 1145.10 L 873.20 1147.10 L 809.30 1150.50 L 750.40 1154.10 L 735.30 1154.20 L 729.40 1153.60 L 717.60 1151.40 L 701.00 1147.60 L 696.00 1147.10 L 672.50 1147.30 L 665.70 1148.20 L 650.80 1152.50 L 640.00 1155.10 L 628.10 1156.80 L 622.10 1157.10 L 616.00 1157.00 L 604.10 1155.70 L 598.20 1154.40 L 592.40 1152.80 L 586.80 1150.70 L 581.30 1148.20 L 576.00 1145.30 L 562.50 1135.90 L 557.50 1133.80 L 522.10 1128.20 L 489.30 1123.80 L 486.60 1123.80 L 483.90 1124.20 L 481.40 1125.10 L 467.30 1132.30 L 460.30 1135.40 L 453.10 1138.10 L 445.80 1140.10 L 439.10 1141.00 L 432.50 1141.20 L 425.90 1140.80 L 419.40 1139.90 L 412.90 1138.60 L 406.50 1136.70 L 394.10 1131.90 L 388.20 1129.00 L 378.00 1123.30 L 368.10 1117.20 L 358.50 1110.60 L 349.20 1103.60 L 340.20 1096.20 L 331.40 1088.60 L 323.20 1080.80 L 315.20 1072.70 L 310.20 1067.10 L 301.00 1055.10 L 296.90 1048.80 L 293.20 1042.30 L 289.90 1035.40 L 287.90 1030.30 L 284.90 1019.70 L 284.00 1014.20 L 283.40 1008.80 L 283.30 1003.30 L 283.60 997.80 L 285.50 986.70 L 287.00 981.20 L 289.00 975.90 L 291.40 970.80 L 294.10 965.80 L 297.20 961.10 L 300.60 956.60 L 308.40 948.30 L 317.20 941.20 L 322.00 938.10 L 327.30 935.30 L 332.80 933.10 L 338.40 931.40 L 344.20 930.10 L 350.10 929.40 L 356.00 929.10 L 361.90 929.20 L 367.80 929.80 L 373.70 930.90 L 379.40 932.40 L 385.00 934.30 L 390.40 936.70 L 395.70 939.50 L 400.60 942.70 L 405.30 946.30 L 416.30 956.30 L 420.30 958.40 L 422.70 958.20 L 425.30 957.60 L 427.70 956.50 L 429.70 955.00 L 430.80 953.80 L 431.50 952.30 L 432.70 945.50 L 437.80 891.50 L 444.90 830.00 L 447.60 811.50 L 447.80 806.80 L 433.20 805.50 L 418.60 803.70 L 399.20 800.40 L 380.10 795.80 L 370.70 793.00 L 361.50 789.70 L 352.50 786.00 L 343.60 781.80 L 335.00 777.00 L 327.10 772.10 L 319.60 766.70 L 312.30 760.90 L 305.40 754.80 L 298.80 748.20 L 292.70 741.30 L 287.00 734.00 L 281.70 726.40 L 276.10 717.50 L 271.20 708.30 L 266.70 698.90 L 262.70 689.20 L 259.10 679.40 L 255.90 669.50 L 253.10 659.10 L 250.90 648.60 L 249.20 638.00 L 248.10 627.30 L 247.50 616.60 L 247.60 605.90 L 248.20 595.10 L 249.40 584.50 L 251.30 573.90 L 252.90 565.90 L 257.30 550.30 L 261.40 538.80 L 265.90 527.50 L 276.10 505.40 L 283.90 490.20 L 292.10 475.30 L 300.70 460.50 L 309.70 446.00 L 322.20 427.00 L 335.10 408.30 L 360.60 373.70 L 385.30 341.70 L 407.30 315.30 L 416.70 304.80 L 426.50 294.50 L 436.70 284.70 L 454.30 269.80 L 472.90 256.20 L 492.40 243.90 L 512.60 232.90 L 533.60 223.30 L 555.20 215.20 Z M 481.80 285.80 L 472.40 292.90 L 463.20 300.40 L 454.40 308.20 L 437.60 324.80 L 429.50 333.50 L 416.80 348.50 L 404.40 363.70 L 392.30 379.20 L 374.60 402.70 L 357.40 426.60 L 345.90 443.60 L 334.80 460.80 L 324.10 478.30 L 313.90 496.00 L 307.40 508.10 L 295.50 532.60 L 290.50 544.40 L 286.00 556.50 L 283.40 564.70 L 279.20 581.20 L 277.70 589.60 L 276.60 598.10 L 276.00 606.70 L 275.80 615.60 L 276.20 624.60 L 277.10 633.50 L 278.60 642.30 L 280.50 651.00 L 282.90 659.70 L 285.80 668.20 L 289.00 676.60 L 296.20 692.60 L 300.30 700.20 L 304.70 707.70 L 309.50 714.90 L 314.70 721.80 L 320.30 728.30 L 326.40 734.50 L 332.80 740.20 L 339.70 745.50 L 347.30 750.40 L 355.10 754.90 L 363.20 758.80 L 371.50 762.30 L 379.90 765.40 L 388.60 768.10 L 406.10 772.30 L 415.00 773.90 L 430.70 775.90 L 446.60 777.50 L 462.40 778.60 L 478.30 779.30 L 478.20 791.00 L 477.80 796.80 L 475.60 817.30 L 467.10 884.20 L 460.40 952.30 L 458.80 962.30 L 457.90 965.70 L 455.40 971.90 L 453.60 974.60 L 451.30 977.10 L 448.50 979.20 L 440.60 983.40 L 436.40 985.10 L 432.10 986.50 L 423.30 988.40 L 418.80 988.90 L 409.90 988.70 L 404.60 985.30 L 391.80 973.10 L 383.90 966.90 L 379.60 964.30 L 375.10 962.10 L 370.40 960.20 L 366.60 959.00 L 362.70 958.20 L 358.70 957.80 L 354.70 957.80 L 346.80 959.00 L 342.90 960.10 L 339.20 961.70 L 332.20 966.00 L 325.90 971.60 L 323.10 974.70 L 318.30 981.70 L 316.40 985.40 L 314.80 989.30 L 313.70 993.40 L 312.80 997.70 L 312.50 1002.10 L 312.50 1006.50 L 312.90 1010.90 L 314.90 1019.40 L 316.50 1023.60 L 320.60 1031.40 L 325.60 1038.70 L 331.00 1045.70 L 336.80 1052.40 L 342.90 1058.80 L 355.90 1070.80 L 366.20 1079.20 L 376.80 1087.20 L 393.10 1098.30 L 404.50 1104.80 L 410.50 1107.50 L 416.60 1109.70 L 422.90 1111.50 L 429.40 1112.60 L 433.70 1112.80 L 437.80 1112.50 L 441.70 1111.80 L 447.50 1110.00 L 453.20 1107.70 L 475.30 1096.60 L 481.80 1093.70 L 484.00 1093.10 L 486.30 1092.90 L 499.20 1095.70 L 545.00 1102.30 L 574.80 1107.00 L 577.90 1108.70 L 582.50 1113.90 L 586.20 1117.40 L 590.20 1120.40 L 594.50 1123.00 L 599.00 1125.20 L 603.80 1127.00 L 608.70 1128.20 L 613.60 1128.90 L 618.70 1129.10 L 623.20 1129.20 L 632.00 1128.10 L 638.50 1126.60 L 657.70 1120.70 L 661.60 1119.70 L 665.50 1119.10 L 681.30 1118.80 L 691.30 1118.20 L 705.00 1118.10 L 712.20 1119.10 L 728.00 1123.60 L 733.30 1124.80 L 740.00 1125.10 L 746.60 1125.00 L 760.00 1124.50 L 888.80 1116.80 L 985.90 1112.30 L 990.70 1111.70 L 995.40 1110.70 L 1001.30 1108.60 L 1004.20 1107.10 L 1007.70 1104.50 L 1010.70 1101.40 L 1013.40 1098.10 L 1015.70 1094.40 L 1017.60 1090.60 L 1019.20 1086.60 L 1021.50 1078.20 L 1022.10 1074.00 L 1022.40 1063.60 L 1021.60 1022.30 L 1021.90 1002.60 L 1023.50 984.00 L 1025.40 970.10 L 1027.80 956.30 L 1030.10 945.90 L 1031.50 940.80 L 1033.20 935.80 L 1036.70 932.00 L 1048.20 924.00 L 1051.00 921.30 L 1065.10 860.50 L 1065.90 855.60 L 1065.90 849.00 L 1065.40 845.70 L 1064.00 841.80 L 1062.10 838.30 L 1059.70 835.00 L 1057.00 831.90 L 1051.10 826.30 L 1041.20 818.20 L 1037.70 815.90 L 1033.30 814.50 L 1028.60 814.20 L 1010.00 814.30 L 996.00 814.90 L 917.30 815.70 L 895.20 816.50 L 873.10 816.70 L 867.90 794.60 L 866.80 787.10 L 872.00 786.40 L 891.50 786.00 L 905.50 785.00 L 919.60 783.40 L 930.00 781.80 L 950.70 777.50 L 961.00 774.70 L 968.10 772.50 L 981.80 766.90 L 995.00 760.10 L 1001.40 756.30 L 1010.80 750.30 L 1019.80 743.80 L 1026.20 738.80 L 1032.10 733.40 L 1037.70 727.60 L 1042.80 721.50 L 1047.60 715.10 L 1052.00 708.30 L 1055.90 701.30 L 1059.30 694.00 L 1065.10 678.40 L 1067.40 670.20 L 1069.20 661.80 L 1070.40 653.40 L 1071.30 644.80 L 1071.60 636.30 L 1071.60 627.70 L 1071.20 619.10 L 1068.30 588.00 L 1066.80 576.80 L 1064.70 565.60 L 1063.10 558.30 L 1058.70 543.80 L 1055.90 536.80 L 1049.50 523.20 L 1044.00 513.30 L 1026.50 484.20 L 1001.00 444.30 L 949.30 365.10 L 942.50 355.40 L 935.20 346.10 L 927.00 336.40 L 918.30 327.00 L 909.30 318.00 L 899.90 309.30 L 890.30 301.00 L 880.30 293.10 L 871.20 286.40 L 862.00 280.20 L 852.50 274.30 L 842.70 268.80 L 829.40 262.00 L 815.90 255.80 L 802.10 250.10 L 789.20 245.40 L 776.10 241.10 L 762.90 237.20 L 749.60 233.90 L 736.20 231.10 L 722.60 228.90 L 710.90 227.30 L 699.20 226.30 L 675.60 225.60 L 652.00 226.00 L 629.30 228.00 L 606.70 231.60 L 584.40 236.80 L 562.50 243.40 L 551.70 247.30 L 541.20 251.60 L 530.80 256.30 L 520.50 261.40 L 510.50 266.90 L 500.70 272.80 L 491.20 279.10 L 481.80 285.80 Z" fill="#fdfdfd" fill-rule="nonzero" node-id="77" stroke="none" target-height="961" target-width="852.9" target-x="247.5" target-y="196.1"></path><path d="M 640.80 243.50 L 653.10 241.10 L 665.50 239.30 L 673.80 238.60 L 682.10 238.30 L 690.50 238.50 L 687.40 253.60 L 687.10 261.20 L 687.40 265.70 L 688.30 270.20 L 689.60 274.50 L 691.50 278.60 L 694.80 283.50 L 696.90 285.70 L 701.10 289.30 L 705.50 292.40 L 710.20 295.00 L 715.10 297.20 L 725.50 300.60 L 733.50 302.30 L 741.50 303.50 L 749.80 303.90 L 758.20 304.00 L 766.70 303.60 L 775.10 302.50 L 780.60 301.40 L 785.90 299.90 L 791.10 298.10 L 796.10 295.70 L 800.90 292.90 L 810.00 286.20 L 813.40 284.80 L 815.30 284.80 L 820.30 285.70 L 841.50 289.90 L 843.40 290.60 L 845.20 291.70 L 846.60 293.40 L 843.20 296.10 L 840.30 299.10 L 837.90 302.50 L 835.80 306.10 L 834.00 309.90 L 832.70 313.90 L 831.70 318.00 L 830.70 326.30 L 815.40 325.10 L 803.10 325.10 L 795.80 325.60 L 788.60 326.50 L 780.10 328.50 L 777.90 330.00 L 775.20 333.20 L 760.60 342.00 L 754.80 346.30 L 749.30 351.00 L 744.10 356.10 L 739.30 361.60 L 734.80 367.30 L 730.80 373.40 L 727.10 379.60 L 723.90 386.10 L 721.10 392.80 L 718.80 399.70 L 717.10 406.70 L 715.90 413.80 L 715.10 421.10 L 714.90 428.30 L 715.20 435.50 L 716.00 442.70 L 717.20 449.80 L 719.00 456.70 L 721.30 463.40 L 724.00 469.90 L 727.10 476.30 L 730.70 482.40 L 734.60 488.30 L 738.90 493.90 L 743.50 499.30 L 748.50 504.40 L 753.60 509.20 L 759.10 513.70 L 769.80 521.10 L 780.30 526.80 L 791.30 531.40 L 797.00 533.10 L 802.80 534.40 L 808.70 535.30 L 825.70 536.60 L 820.70 559.10 L 818.40 574.70 L 808.90 573.90 L 790.10 571.20 L 753.80 568.20 L 717.30 566.50 L 665.70 566.10 L 664.90 561.10 L 665.40 555.50 L 665.60 549.90 L 665.20 544.40 L 664.50 538.80 L 663.30 533.30 L 661.70 527.90 L 659.80 522.70 L 654.80 512.60 L 651.80 507.90 L 648.40 503.50 L 644.70 499.20 L 640.40 494.70 L 635.70 490.70 L 630.80 487.00 L 620.20 480.50 L 606.10 473.90 L 578.30 463.10 L 572.20 460.10 L 568.30 457.90 L 564.60 455.20 L 561.10 452.30 L 555.30 446.10 L 552.90 442.70 L 551.00 438.90 L 550.20 436.30 L 549.70 433.60 L 549.60 430.70 L 550.40 426.40 L 551.30 424.40 L 553.10 421.70 L 555.40 419.20 L 560.80 415.40 L 576.20 408.00 L 583.60 403.60 L 590.60 398.60 L 597.20 393.10 L 603.50 387.20 L 609.40 380.80 L 614.90 374.20 L 620.00 367.20 L 624.60 360.00 L 628.90 352.50 L 632.70 344.70 L 637.10 333.50 L 639.00 327.60 L 640.50 321.60 L 641.50 315.70 L 642.10 309.60 L 642.20 303.60 L 641.60 297.50 L 640.50 291.50 L 639.20 287.40 L 635.60 279.70 L 633.30 276.10 L 629.90 271.60 L 626.00 267.50 L 621.70 263.80 L 617.10 260.40 L 612.30 257.40 L 607.20 254.90 L 618.10 250.10 L 623.70 248.20 L 640.80 243.50 Z" fill="#fdfdfd" fill-rule="nonzero" node-id="79" stroke="none" target-height="336.40002" target-width="297" target-x="549.6" target-y="238.3"></path><path d="M 415.10 409.80 L 428.20 394.00 L 432.90 389.10 L 436.90 392.10 L 441.10 394.80 L 445.50 397.20 L 467.30 407.70 L 475.40 412.10 L 483.30 416.80 L 490.90 421.90 L 500.60 429.40 L 505.10 433.50 L 509.10 437.70 L 516.10 446.70 L 519.10 451.50 L 521.90 456.50 L 524.20 461.70 L 526.10 467.10 L 527.60 472.60 L 528.90 479.70 L 529.70 486.90 L 530.00 494.00 L 529.80 501.20 L 529.20 508.40 L 528.10 515.50 L 526.70 522.60 L 522.70 536.40 L 520.30 542.80 L 517.50 549.00 L 508.30 567.40 L 505.50 573.70 L 484.50 576.90 L 463.60 580.60 L 449.70 583.40 L 435.90 586.60 L 422.20 590.20 L 399.50 597.20 L 391.80 599.20 L 390.50 593.50 L 389.70 587.80 L 389.40 582.00 L 390.30 570.50 L 391.30 564.70 L 393.40 556.20 L 396.00 548.00 L 398.10 542.70 L 407.30 521.90 L 409.20 516.60 L 410.80 511.10 L 411.80 505.50 L 412.70 496.90 L 413.00 488.30 L 412.70 479.70 L 411.80 471.10 L 410.30 462.60 L 408.30 454.30 L 406.30 448.10 L 401.40 436.20 L 398.40 430.50 L 402.30 425.10 L 415.10 409.80 Z" fill="#fdfdfd" fill-rule="nonzero" node-id="81" stroke="none" target-height="210.1" target-width="140.6" target-x="389.4" target-y="389.1"></path><path d="M 975.90 547.90 L 1012.20 531.40 L 1014.60 532.90 L 1016.50 534.80 L 1018.10 537.00 L 1019.30 539.50 L 1034.90 574.30 L 1041.30 591.30 L 1042.50 595.70 L 1043.30 600.20 L 1035.80 602.00 L 1028.50 604.20 L 1021.30 607.00 L 1014.30 610.30 L 1007.70 614.10 L 1001.40 618.50 L 996.90 622.10 L 992.80 626.00 L 988.90 630.30 L 985.30 634.90 L 976.70 628.40 L 967.80 622.20 L 958.70 616.50 L 939.80 605.90 L 930.20 601.00 L 933.30 595.00 L 940.30 583.40 L 948.30 572.50 L 952.70 567.40 L 963.40 556.50 L 967.30 553.20 L 971.40 550.30 L 975.90 547.90 Z" fill="#fdfdfd" fill-rule="nonzero" node-id="83" stroke="none" target-height="103.5" target-width="113.10004" target-x="930.2" target-y="531.4"></path><path d="M 832.50 859.30 L 839.00 858.90 L 848.80 859.00 L 857.90 858.20 L 861.70 858.70 L 863.50 859.60 L 861.30 865.30 L 856.10 882.80 L 854.00 888.50 L 851.30 893.90 L 819.40 895.00 L 820.10 889.20 L 826.50 867.80 L 829.20 862.60 L 832.50 859.30 Z" fill="#fdfdfd" fill-rule="nonzero" node-id="85" stroke="none" target-height="36.799988" target-width="44.099976" target-x="819.4" target-y="858.2"></path><path d="M 991.70 1066.80 L 1004.40 1024.10 L 1005.50 1029.30 L 1006.20 1034.70 L 1007.10 1045.40 L 1007.40 1056.90 L 1007.60 1068.50 L 1007.30 1074.30 L 1006.80 1080.10 L 1005.50 1086.40 L 1004.70 1088.30 L 1002.90 1090.40 L 1001.70 1091.20 L 998.50 1092.40 L 991.90 1093.60 L 981.70 1093.80 L 985.80 1085.10 L 991.70 1066.80 Z" fill="#fdfdfd" fill-rule="nonzero" node-id="87" stroke="none" target-height="69.70007" target-width="25.899963" target-x="981.7" target-y="1024.1"></path><path d="M 481.80 285.80 L 491.20 279.10 L 500.70 272.80 L 510.50 266.90 L 520.50 261.40 L 530.80 256.30 L 541.20 251.60 L 551.70 247.30 L 562.50 243.40 L 584.40 236.80 L 606.70 231.60 L 629.30 228.00 L 652.00 226.00 L 675.60 225.60 L 699.20 226.30 L 710.90 227.30 L 722.60 228.90 L 736.20 231.10 L 749.60 233.90 L 762.90 237.20 L 776.10 241.10 L 789.20 245.40 L 802.10 250.10 L 815.90 255.80 L 829.40 262.00 L 842.70 268.80 L 852.50 274.30 L 862.00 280.20 L 871.20 286.40 L 880.30 293.10 L 890.30 301.00 L 899.90 309.30 L 909.30 318.00 L 918.30 327.00 L 927.00 336.40 L 935.20 346.10 L 942.50 355.40 L 949.30 365.10 L 1001.00 444.30 L 1026.50 484.20 L 1044.00 513.30 L 1049.50 523.20 L 1055.90 536.80 L 1058.70 543.80 L 1063.10 558.30 L 1064.70 565.60 L 1066.80 576.80 L 1068.30 588.00 L 1071.20 619.10 L 1071.60 627.70 L 1071.60 636.30 L 1071.30 644.80 L 1070.40 653.40 L 1069.20 661.80 L 1067.40 670.20 L 1065.10 678.40 L 1059.30 694.00 L 1055.90 701.30 L 1052.00 708.30 L 1047.60 715.10 L 1042.80 721.50 L 1037.70 727.60 L 1032.10 733.40 L 1026.20 738.80 L 1019.80 743.80 L 1010.80 750.30 L 1001.40 756.30 L 988.50 763.70 L 981.80 766.90 L 968.10 772.50 L 961.00 774.70 L 950.70 777.50 L 930.00 781.80 L 919.60 783.40 L 905.50 785.00 L 891.50 786.00 L 872.00 786.40 L 866.80 787.10 L 867.90 794.60 L 873.10 816.70 L 895.20 816.50 L 917.30 815.70 L 996.00 814.90 L 1010.00 814.30 L 1028.60 814.20 L 1033.30 814.50 L 1037.70 815.90 L 1041.20 818.20 L 1051.10 826.30 L 1057.00 831.90 L 1059.70 835.00 L 1062.10 838.30 L 1064.00 841.80 L 1065.40 845.70 L 1065.90 849.00 L 1065.90 855.60 L 1065.10 860.50 L 1051.00 921.30 L 1048.20 924.00 L 1036.70 932.00 L 1033.20 935.80 L 1031.50 940.80 L 1030.10 945.90 L 1027.80 956.30 L 1025.40 970.10 L 1023.50 984.00 L 1021.90 1002.60 L 1021.60 1022.30 L 1022.40 1063.60 L 1022.10 1074.00 L 1021.50 1078.20 L 1019.20 1086.50 L 1015.70 1094.40 L 1013.40 1098.10 L 1010.70 1101.40 L 1007.70 1104.50 L 1004.20 1107.10 L 1001.30 1108.60 L 995.40 1110.70 L 990.70 1111.70 L 985.90 1112.30 L 888.80 1116.80 L 760.00 1124.50 L 746.60 1125.00 L 740.00 1125.10 L 733.30 1124.80 L 728.00 1123.60 L 712.20 1119.10 L 705.00 1118.10 L 691.30 1118.20 L 681.30 1118.80 L 665.50 1119.10 L 661.60 1119.70 L 657.70 1120.70 L 638.50 1126.60 L 632.00 1128.10 L 623.20 1129.20 L 618.70 1129.10 L 613.60 1128.90 L 608.70 1128.20 L 603.80 1127.00 L 599.00 1125.20 L 594.50 1123.00 L 590.20 1120.40 L 586.20 1117.40 L 582.50 1113.90 L 577.90 1108.70 L 574.80 1107.00 L 545.00 1102.30 L 499.20 1095.70 L 486.30 1092.90 L 484.00 1093.10 L 481.80 1093.70 L 475.30 1096.60 L 453.20 1107.70 L 447.50 1110.00 L 441.70 1111.80 L 437.80 1112.50 L 433.70 1112.80 L 429.40 1112.60 L 422.90 1111.50 L 416.60 1109.70 L 410.50 1107.50 L 404.50 1104.80 L 393.10 1098.30 L 376.80 1087.20 L 366.20 1079.20 L 355.90 1070.80 L 342.90 1058.80 L 336.80 1052.40 L 331.00 1045.70 L 325.60 1038.70 L 320.60 1031.40 L 318.40 1027.50 L 314.90 1019.40 L 312.90 1010.90 L 312.50 1002.10 L 312.80 997.70 L 313.70 993.40 L 314.80 989.30 L 316.40 985.40 L 318.30 981.70 L 323.10 974.70 L 325.90 971.60 L 332.20 966.00 L 339.20 961.70 L 342.90 960.10 L 346.80 959.00 L 354.70 957.80 L 358.70 957.80 L 362.70 958.20 L 366.60 959.00 L 370.40 960.20 L 375.10 962.10 L 379.60 964.30 L 383.90 966.90 L 391.80 973.10 L 404.60 985.30 L 409.90 988.70 L 418.80 988.90 L 423.30 988.40 L 432.10 986.50 L 436.40 985.10 L 440.60 983.40 L 448.50 979.20 L 451.30 977.10 L 453.60 974.60 L 455.40 971.90 L 457.90 965.70 L 458.80 962.30 L 460.40 952.30 L 467.10 884.20 L 475.60 817.30 L 477.80 796.80 L 478.20 791.00 L 478.30 779.30 L 462.40 778.60 L 446.60 777.50 L 430.70 775.90 L 415.00 773.90 L 406.10 772.30 L 388.60 768.10 L 379.90 765.40 L 371.50 762.30 L 363.20 758.80 L 355.10 754.90 L 347.30 750.40 L 339.70 745.50 L 332.80 740.20 L 326.40 734.50 L 320.30 728.30 L 314.70 721.80 L 309.50 714.90 L 304.70 707.70 L 300.30 700.20 L 296.20 692.60 L 289.00 676.60 L 285.80 668.20 L 282.90 659.70 L 280.50 651.00 L 278.60 642.30 L 277.10 633.50 L 276.20 624.60 L 275.80 615.60 L 276.00 606.70 L 276.60 598.10 L 277.70 589.60 L 279.20 581.20 L 283.40 564.70 L 286.00 556.50 L 290.50 544.40 L 295.50 532.60 L 307.40 508.10 L 313.90 496.00 L 324.10 478.30 L 334.80 460.80 L 345.90 443.60 L 357.40 426.60 L 374.60 402.70 L 392.30 379.20 L 404.40 363.70 L 416.80 348.50 L 429.50 333.50 L 445.90 316.40 L 454.40 308.20 L 463.20 300.40 L 472.40 292.90 L 481.80 285.80 Z M 645.00 236.70 L 630.20 238.30 L 615.40 240.60 L 605.60 242.40 L 581.50 248.40 L 567.50 253.00 L 556.80 256.70 L 546.30 260.90 L 536.00 265.50 L 525.90 270.50 L 516.00 276.00 L 506.30 281.80 L 496.80 288.00 L 487.60 294.50 L 478.60 301.40 L 469.90 308.60 L 460.80 316.50 L 452.10 324.80 L 443.80 333.50 L 427.90 351.70 L 409.70 373.90 L 379.50 413.90 L 365.80 433.50 L 343.90 466.80 L 327.50 494.20 L 318.80 509.90 L 310.60 526.00 L 305.50 536.80 L 300.80 547.90 L 296.60 559.10 L 293.80 567.60 L 291.40 576.30 L 289.40 585.00 L 287.70 593.90 L 287.20 602.30 L 287.20 619.20 L 287.60 627.60 L 289.00 636.80 L 290.80 645.80 L 293.20 654.70 L 296.00 663.50 L 299.30 672.10 L 303.20 680.50 L 307.50 688.70 L 312.30 696.50 L 317.70 704.10 L 318.20 697.90 L 320.00 687.70 L 322.50 679.90 L 325.20 674.10 L 328.50 668.60 L 332.20 663.40 L 336.40 658.50 L 345.50 649.50 L 354.20 642.50 L 363.20 635.90 L 372.50 629.70 L 382.20 624.00 L 392.00 618.80 L 411.10 609.90 L 420.30 606.40 L 429.70 603.30 L 453.90 596.60 L 478.40 591.30 L 503.20 587.20 L 503.30 586.20 L 508.10 586.00 L 538.10 582.40 L 553.90 580.90 L 569.70 579.70 L 617.30 576.90 L 639.40 576.70 L 678.70 577.00 L 712.60 578.10 L 729.20 579.00 L 745.70 580.40 L 762.20 582.10 L 784.20 585.10 L 806.10 588.70 L 827.90 592.90 L 843.40 596.30 L 874.30 603.80 L 899.70 611.40 L 919.70 618.80 L 939.80 627.80 L 949.70 632.70 L 959.40 638.00 L 968.90 643.70 L 984.30 654.70 L 990.30 659.90 L 995.90 665.40 L 1005.20 676.40 L 1009.40 682.30 L 1013.00 688.60 L 1015.10 692.90 L 1018.20 702.00 L 1019.10 707.00 L 1019.50 712.00 L 1019.40 717.00 L 1017.40 732.00 L 1021.30 729.00 L 1028.30 722.30 L 1033.10 716.70 L 1037.50 710.90 L 1042.10 703.70 L 1046.20 696.20 L 1049.90 688.60 L 1053.00 680.60 L 1055.60 672.50 L 1057.80 664.20 L 1059.40 655.90 L 1060.60 647.40 L 1061.00 635.10 L 1060.80 622.70 L 1060.30 614.50 L 1058.30 598.10 L 1058.00 590.80 L 1057.10 583.40 L 1053.80 563.10 L 1052.50 557.40 L 1049.90 550.10 L 1044.80 541.10 L 1036.30 524.10 L 1028.70 509.90 L 1020.70 495.90 L 1012.20 482.10 L 970.50 417.50 L 943.60 377.60 L 935.40 366.20 L 927.00 355.00 L 918.30 344.20 L 909.00 333.70 L 901.90 326.20 L 894.40 319.20 L 886.60 312.40 L 878.60 306.00 L 870.20 300.00 L 857.70 291.50 L 854.10 288.30 L 846.20 283.20 L 838.10 278.50 L 821.40 270.00 L 808.00 264.10 L 794.40 258.70 L 780.70 253.80 L 766.80 249.40 L 755.70 246.40 L 744.50 243.80 L 733.20 241.50 L 710.40 238.30 L 687.50 236.50 L 665.70 235.70 L 645.00 236.70 Z M 612.40 589.80 L 605.00 601.00 L 601.70 605.00 L 598.00 608.60 L 594.00 612.00 L 589.80 615.00 L 580.70 620.00 L 575.90 622.00 L 566.00 624.80 L 558.20 625.80 L 542.40 626.60 L 534.10 627.40 L 525.90 628.60 L 517.70 630.10 L 509.60 632.30 L 510.30 643.20 L 510.60 654.10 L 510.40 665.00 L 509.60 676.00 L 507.70 692.60 L 503.00 725.90 L 487.80 816.30 L 484.50 836.80 L 481.60 857.30 L 476.00 904.60 L 473.50 928.30 L 471.50 952.10 L 470.90 975.50 L 470.90 987.20 L 471.40 998.90 L 473.00 1014.40 L 474.30 1022.10 L 476.30 1030.20 L 478.80 1038.30 L 480.80 1043.50 L 485.70 1053.60 L 488.60 1058.40 L 491.80 1062.90 L 495.40 1067.30 L 499.30 1071.10 L 503.50 1074.50 L 508.00 1077.70 L 517.60 1082.80 L 522.60 1084.90 L 533.10 1088.10 L 538.40 1089.20 L 554.10 1091.60 L 562.00 1092.60 L 569.90 1093.20 L 564.30 1078.00 L 562.80 1072.90 L 559.40 1055.90 L 558.20 1040.10 L 558.20 1029.50 L 559.30 1018.00 L 560.20 1011.80 L 563.00 999.50 L 567.30 987.70 L 570.10 982.10 L 573.30 976.70 L 576.90 971.60 L 582.90 965.30 L 586.30 962.60 L 590.00 960.20 L 593.80 958.30 L 597.80 956.70 L 602.00 955.60 L 606.30 955.10 L 614.30 955.40 L 617.80 956.10 L 621.10 957.30 L 624.30 958.90 L 627.20 960.90 L 632.40 965.80 L 636.40 971.70 L 640.00 980.20 L 641.20 984.50 L 642.50 991.30 L 643.10 998.10 L 643.30 1005.00 L 643.00 1012.80 L 643.30 1013.50 L 644.40 1014.60 L 664.40 1028.70 L 674.00 1034.70 L 683.90 1040.30 L 690.20 1043.50 L 696.80 1046.30 L 703.50 1048.80 L 710.30 1050.80 L 719.60 1052.50 L 724.30 1053.00 L 763.60 897.20 L 777.00 845.40 L 781.10 831.00 L 782.50 827.50 L 784.20 824.20 L 785.30 822.70 L 788.10 820.50 L 790.50 819.30 L 795.90 818.30 L 838.00 817.70 L 862.60 816.80 L 854.90 783.30 L 852.60 772.10 L 845.50 732.80 L 842.40 713.10 L 839.60 693.30 L 837.30 668.70 L 836.80 660.40 L 836.70 652.20 L 837.10 644.00 L 838.40 629.90 L 821.40 625.80 L 781.70 619.00 L 776.60 617.50 L 771.70 615.70 L 766.90 613.40 L 760.70 609.80 L 755.00 605.70 L 749.60 601.10 L 740.00 590.70 L 733.40 590.00 L 723.30 589.60 L 703.10 588.40 L 669.30 587.40 L 643.90 587.40 L 618.60 587.70 L 614.10 588.40 L 613.10 588.90 L 612.40 589.80 Z M 491.50 599.90 L 479.40 602.00 L 467.50 604.60 L 443.70 610.40 L 435.20 612.70 L 426.90 615.50 L 418.70 618.60 L 406.60 623.80 L 394.80 629.50 L 378.60 638.60 L 370.70 643.60 L 363.00 648.90 L 355.70 654.60 L 348.70 660.70 L 341.90 668.00 L 336.10 676.20 L 333.80 680.60 L 332.00 685.20 L 330.60 690.00 L 329.80 694.90 L 329.60 703.70 L 330.00 707.40 L 330.90 711.00 L 333.60 717.80 L 338.40 725.80 L 344.60 733.40 L 350.90 738.90 L 356.10 742.50 L 367.30 748.40 L 373.00 751.00 L 382.00 754.40 L 391.20 757.40 L 400.50 759.90 L 419.30 763.60 L 428.90 764.90 L 443.20 766.40 L 457.60 767.50 L 475.00 768.20 L 483.60 767.70 L 484.50 762.60 L 469.30 760.40 L 454.10 758.70 L 435.50 753.70 L 429.30 751.60 L 417.40 746.60 L 411.80 743.60 L 406.40 740.00 L 401.30 736.00 L 397.70 732.40 L 394.40 728.50 L 391.60 724.10 L 389.30 719.50 L 387.50 714.70 L 386.40 709.70 L 385.80 702.10 L 386.90 694.50 L 388.50 689.60 L 390.60 684.90 L 393.10 680.40 L 399.10 672.10 L 402.50 668.30 L 408.10 662.90 L 414.00 658.00 L 418.70 654.50 L 428.60 648.30 L 436.40 644.40 L 444.40 640.80 L 460.70 634.40 L 464.00 633.90 L 487.90 626.90 L 502.30 623.40 L 516.90 620.40 L 531.60 617.90 L 537.60 617.10 L 555.70 616.20 L 561.70 615.50 L 567.60 614.30 L 572.10 612.80 L 580.60 608.80 L 584.70 606.30 L 588.40 603.40 L 591.90 600.20 L 595.10 596.70 L 597.90 593.00 L 600.30 588.90 L 594.50 588.90 L 555.80 591.90 L 534.30 594.10 L 512.90 596.80 L 491.50 599.90 Z M 755.90 592.30 L 760.70 596.50 L 769.50 602.70 L 777.00 606.60 L 781.00 608.00 L 785.10 609.10 L 801.10 611.50 L 812.90 613.60 L 824.60 616.10 L 836.10 619.10 L 847.60 622.60 L 861.50 627.40 L 862.80 627.70 L 864.20 627.50 L 869.50 630.40 L 881.90 636.20 L 895.00 643.80 L 901.40 648.00 L 913.30 657.30 L 919.90 663.30 L 926.20 669.60 L 930.20 674.10 L 937.20 683.60 L 940.10 688.70 L 942.50 694.10 L 944.40 699.90 L 944.50 708.30 L 944.20 712.50 L 943.30 716.60 L 941.70 721.20 L 939.70 725.60 L 937.30 729.80 L 934.50 733.70 L 927.90 740.90 L 920.30 747.00 L 916.30 749.60 L 910.70 752.50 L 904.90 754.90 L 899.00 756.90 L 886.80 759.90 L 877.50 761.60 L 868.00 762.40 L 861.80 763.60 L 863.70 774.00 L 872.40 774.40 L 898.60 773.80 L 918.50 772.20 L 923.40 771.40 L 928.30 770.40 L 940.40 768.40 L 952.40 765.70 L 958.20 763.90 L 963.90 761.50 L 969.30 760.00 L 974.70 758.00 L 979.90 755.60 L 984.90 752.80 L 989.60 749.60 L 994.00 745.90 L 999.80 739.70 L 1004.40 732.40 L 1006.30 728.30 L 1007.60 724.10 L 1008.40 719.70 L 1008.80 715.20 L 1008.70 710.80 L 1008.10 706.30 L 1007.00 701.90 L 1005.50 697.70 L 1003.60 693.70 L 1000.20 687.80 L 996.40 682.20 L 992.10 677.00 L 987.50 672.10 L 977.30 663.00 L 969.20 656.90 L 960.70 651.30 L 942.40 641.00 L 933.00 636.30 L 913.60 627.90 L 893.80 621.00 L 883.60 618.00 L 862.40 612.50 L 840.90 607.40 L 797.90 598.50 L 766.50 593.40 L 755.90 592.30 Z M 492.90 635.70 L 480.60 639.20 L 460.30 645.70 L 444.50 652.20 L 436.90 656.00 L 429.50 660.30 L 422.40 665.10 L 416.10 670.30 L 410.10 675.90 L 407.40 679.10 L 405.10 682.50 L 412.50 680.70 L 450.60 669.30 L 460.80 665.90 L 496.70 652.50 L 498.00 651.70 L 499.00 650.60 L 499.20 642.60 L 498.20 634.70 L 492.90 635.70 Z M 849.70 634.70 L 849.00 639.60 L 849.10 642.10 L 849.70 644.50 L 866.80 648.70 L 875.20 651.30 L 893.80 658.00 L 900.10 659.80 L 893.80 655.10 L 887.10 650.90 L 880.20 647.10 L 873.20 643.60 L 858.80 637.30 L 854.30 635.80 L 849.70 634.70 Z M 848.20 654.90 L 848.70 657.70 L 849.80 660.20 L 851.30 662.40 L 855.40 666.10 L 887.10 688.10 L 901.70 698.50 L 918.60 711.20 L 926.00 717.60 L 931.30 721.30 L 932.80 716.80 L 933.80 712.20 L 934.40 707.50 L 934.40 702.80 L 934.00 698.20 L 933.00 693.60 L 932.40 691.70 L 931.40 690.10 L 930.10 688.70 L 927.80 687.00 L 925.20 685.60 L 879.00 664.60 L 863.40 658.00 L 856.00 655.70 L 852.10 655.10 L 848.20 654.90 Z M 468.90 672.90 L 451.30 678.90 L 433.60 684.50 L 421.70 687.80 L 397.60 693.60 L 396.30 696.90 L 395.60 700.20 L 395.50 703.50 L 395.80 706.90 L 396.50 710.20 L 397.60 713.50 L 399.10 716.60 L 402.70 722.40 L 445.90 701.60 L 460.20 694.40 L 474.20 686.80 L 487.90 678.60 L 495.20 673.80 L 497.20 671.80 L 497.90 669.30 L 498.50 661.30 L 468.90 672.90 Z M 853.00 678.80 L 854.10 682.10 L 857.20 688.30 L 880.00 723.10 L 885.30 732.00 L 893.60 747.70 L 899.50 746.20 L 905.40 744.00 L 912.70 740.30 L 919.20 735.40 L 922.10 732.50 L 924.70 729.20 L 921.20 725.60 L 917.30 722.40 L 909.20 716.20 L 890.80 703.20 L 862.80 684.30 L 858.00 681.30 L 853.00 678.80 Z M 467.00 701.70 L 449.00 711.10 L 430.70 720.00 L 411.50 728.80 L 411.20 729.90 L 411.80 731.10 L 423.80 738.00 L 429.80 740.70 L 435.90 743.00 L 437.70 742.20 L 439.40 741.10 L 492.10 697.40 L 494.20 695.20 L 495.30 691.90 L 495.80 685.30 L 467.00 701.70 Z M 855.00 705.40 L 860.40 751.40 L 872.30 751.40 L 876.20 751.10 L 880.10 750.50 L 884.00 749.50 L 874.90 734.40 L 855.00 705.40 Z M 472.50 727.10 L 456.60 739.90 L 449.10 746.60 L 456.20 748.50 L 470.90 750.70 L 478.40 751.10 L 482.10 750.80 L 485.80 750.00 L 492.90 710.40 L 485.70 715.60 L 472.50 727.10 Z M 946.70 825.00 L 934.00 825.60 L 883.30 826.30 L 870.70 826.90 L 803.60 827.80 L 817.90 841.60 L 817.00 846.50 L 799.90 906.80 L 769.80 1016.50 L 755.70 1070.20 L 750.70 1088.00 L 750.00 1092.20 L 749.70 1096.50 L 749.90 1105.10 L 750.20 1106.60 L 751.90 1109.40 L 754.60 1111.10 L 756.30 1111.40 L 766.20 1111.60 L 776.10 1111.40 L 815.80 1109.70 L 832.20 1108.30 L 917.70 1103.10 L 953.90 1100.30 L 957.10 1099.80 L 960.10 1099.00 L 965.90 1096.20 L 970.80 1092.10 L 972.80 1089.70 L 974.50 1087.00 L 975.90 1084.10 L 984.40 1055.20 L 1004.30 974.80 L 1011.50 948.10 L 1013.40 943.50 L 1015.70 939.10 L 1018.50 935.00 L 1021.60 931.10 L 1028.70 923.90 L 1032.60 920.80 L 1040.60 915.20 L 1042.50 912.90 L 1047.70 888.20 L 1049.50 880.50 L 1055.10 861.20 L 1056.50 854.70 L 1056.70 851.70 L 1056.30 848.90 L 1055.40 846.20 L 1054.10 843.60 L 1050.80 838.90 L 1049.80 839.00 L 1040.50 830.90 L 1030.60 823.90 L 1009.60 824.40 L 946.70 825.00 Z M 792.10 829.90 L 788.40 841.10 L 775.90 889.40 L 724.70 1092.90 L 723.40 1100.70 L 723.40 1104.70 L 726.20 1107.10 L 729.20 1109.20 L 732.70 1110.90 L 736.20 1112.30 L 743.50 1113.90 L 740.70 1107.80 L 739.40 1103.60 L 739.20 1098.60 L 739.60 1095.80 L 761.60 1011.80 L 781.40 938.60 L 801.70 865.60 L 806.50 849.90 L 807.60 844.50 L 800.10 836.90 L 792.10 829.90 Z M 581.40 982.80 L 578.50 987.70 L 576.10 992.90 L 574.20 998.20 L 572.60 1003.70 L 570.50 1014.90 L 568.90 1032.00 L 569.20 1041.60 L 569.90 1051.20 L 571.80 1063.80 L 575.10 1076.20 L 577.30 1082.10 L 579.90 1088.00 L 585.00 1097.30 L 587.90 1101.80 L 591.20 1105.90 L 596.30 1110.70 L 599.20 1112.70 L 603.50 1115.10 L 608.00 1116.80 L 612.70 1118.00 L 617.50 1118.70 L 622.30 1118.90 L 627.20 1118.50 L 631.90 1117.60 L 636.60 1116.20 L 641.00 1114.30 L 636.00 1090.60 L 634.20 1078.60 L 632.10 1056.30 L 631.30 1045.00 L 630.90 1033.80 L 631.50 1018.90 L 632.90 1004.90 L 632.80 998.30 L 632.40 993.90 L 630.70 985.30 L 629.30 981.20 L 627.50 977.20 L 625.30 973.30 L 623.30 970.90 L 621.00 969.00 L 618.30 967.40 L 615.40 966.30 L 612.40 965.80 L 605.40 965.80 L 601.70 966.50 L 598.20 967.80 L 594.90 969.50 L 591.70 971.60 L 586.00 976.80 L 581.40 982.80 Z M 323.20 1002.60 L 323.40 1007.40 L 324.20 1011.90 L 325.50 1016.20 L 327.30 1020.50 L 332.00 1028.50 L 340.40 1039.60 L 347.90 1047.90 L 355.90 1055.80 L 364.20 1063.30 L 372.90 1070.40 L 381.90 1077.10 L 398.70 1088.60 L 406.60 1093.30 L 412.10 1096.00 L 417.80 1098.20 L 423.70 1100.00 L 427.90 1100.70 L 432.10 1100.80 L 436.30 1100.60 L 444.50 1098.80 L 448.40 1097.40 L 454.20 1094.80 L 459.60 1091.60 L 459.60 1086.80 L 458.50 1077.50 L 456.80 1070.60 L 454.70 1063.90 L 452.00 1056.70 L 448.70 1049.80 L 443.40 1041.00 L 436.40 1031.80 L 432.10 1027.00 L 401.20 996.10 L 388.30 983.70 L 384.50 980.30 L 380.50 977.20 L 376.20 974.50 L 371.70 972.20 L 367.00 970.30 L 362.10 969.00 L 358.10 968.50 L 354.30 968.50 L 350.50 969.10 L 346.80 970.20 L 343.30 971.60 L 339.90 973.50 L 336.70 975.80 L 333.80 978.40 L 331.20 981.30 L 328.90 984.40 L 326.90 987.70 L 325.30 991.30 L 324.10 995.00 L 323.40 998.80 L 323.20 1002.60 Z M 457.00 985.80 L 449.20 990.80 L 445.10 992.80 L 438.60 995.20 L 432.00 997.00 L 418.40 999.50 L 421.30 1002.80 L 436.30 1016.40 L 441.10 1021.60 L 445.60 1027.20 L 451.90 1035.90 L 457.70 1044.90 L 458.30 1047.40 L 461.90 1055.80 L 466.10 1067.90 L 467.80 1074.00 L 470.30 1086.60 L 486.10 1081.90 L 490.10 1081.10 L 494.30 1080.70 L 489.40 1076.40 L 485.00 1071.80 L 481.10 1066.80 L 477.60 1061.50 L 474.50 1055.90 L 469.50 1044.10 L 465.70 1031.80 L 463.60 1022.40 L 461.40 1008.20 L 459.60 983.90 L 457.00 985.80 Z M 640.90 1024.00 L 640.90 1037.10 L 642.40 1063.30 L 645.20 1087.30 L 646.50 1095.20 L 648.30 1103.10 L 650.60 1110.80 L 661.20 1108.60 L 666.60 1107.80 L 702.70 1106.20 L 713.00 1106.10 L 713.10 1097.60 L 719.00 1075.10 L 721.20 1063.60 L 714.60 1062.50 L 701.50 1059.30 L 695.10 1057.20 L 688.90 1054.60 L 672.40 1045.90 L 662.30 1039.70 L 652.50 1033.00 L 640.90 1024.00 Z M 991.70 1066.80 L 985.80 1085.10 L 981.70 1093.80 L 991.90 1093.60 L 998.50 1092.40 L 1001.70 1091.20 L 1002.90 1090.40 L 1004.70 1088.30 L 1005.50 1086.40 L 1006.80 1080.10 L 1007.30 1074.30 L 1007.40 1056.90 L 1007.10 1045.40 L 1006.20 1034.70 L 1005.50 1029.30 L 1004.40 1024.10 L 991.70 1066.80 Z" fill="#030201" fill-rule="nonzero" node-id="89" stroke="none" target-height="903.6" target-width="795.8" target-x="275.8" target-y="225.6"></path><path d="M 865.00 319.60 L 865.70 318.50 L 866.70 318.00 L 871.70 317.60 L 872.30 320.00 L 872.40 322.50 L 870.20 334.70 L 870.30 337.20 L 871.50 339.70 L 874.80 344.20 L 877.80 347.10 L 887.30 355.40 L 896.70 364.70 L 905.00 375.10 L 912.00 386.30 L 917.60 398.30 L 921.40 408.10 L 923.00 413.10 L 924.70 421.60 L 924.70 428.60 L 918.20 428.70 L 916.50 424.10 L 908.80 396.50 L 907.20 392.10 L 905.40 387.80 L 903.00 383.70 L 899.30 378.60 L 895.40 373.80 L 891.10 369.30 L 881.80 360.90 L 869.20 351.70 L 861.30 346.60 L 857.00 343.90 L 847.70 339.50 L 842.90 337.70 L 838.00 336.40 L 833.00 335.40 L 820.10 333.60 L 807.10 332.90 L 798.50 333.50 L 784.70 336.50 L 781.40 336.90 L 780.20 336.80 L 779.10 336.40 L 775.20 333.20 L 778.90 329.10 L 781.50 328.00 L 788.60 326.50 L 795.80 325.60 L 810.40 324.90 L 833.20 327.80 L 838.90 328.80 L 854.90 333.80 L 857.60 334.20 L 860.30 334.20 L 863.40 323.10 L 865.00 319.60 Z" fill="#030201" fill-rule="nonzero" node-id="91" stroke="none" target-height="111.100006" target-width="149.5" target-x="775.2" target-y="317.6"></path><path d="M 903.30 474.00 L 905.10 473.70 L 906.90 474.00 L 910.40 475.10 L 910.10 477.40 L 908.60 481.60 L 904.70 487.10 L 895.20 497.00 L 889.80 501.40 L 884.10 505.40 L 878.10 508.90 L 871.90 512.00 L 856.60 518.10 L 852.70 520.70 L 851.20 522.90 L 849.10 527.60 L 846.70 539.20 L 845.50 542.90 L 844.70 544.20 L 843.60 544.80 L 842.20 545.00 L 837.90 544.80 L 837.70 541.00 L 839.20 526.10 L 839.20 522.40 L 820.30 522.00 L 814.10 521.20 L 811.10 520.30 L 813.00 514.10 L 819.80 513.80 L 833.40 515.00 L 839.00 514.60 L 844.50 513.90 L 849.90 512.70 L 855.30 511.10 L 862.20 508.50 L 868.90 505.20 L 875.30 501.40 L 881.40 497.00 L 887.10 492.30 L 892.50 487.10 L 899.50 478.10 L 903.30 474.00 Z" fill="#030201" fill-rule="nonzero" node-id="93" stroke="none" target-height="71.29999" target-width="99.30005" target-x="811.1" target-y="473.7"></path><path d="M 588.60 699.30 L 591.50 698.30 L 594.60 697.90 L 597.70 698.20 L 600.70 698.90 L 603.50 700.20 L 606.10 702.00 L 607.90 703.80 L 610.90 707.90 L 612.50 711.30 L 613.70 715.00 L 614.30 718.80 L 614.40 726.90 L 613.80 731.00 L 612.60 735.10 L 611.00 738.90 L 608.80 742.60 L 606.30 745.90 L 603.30 748.90 L 600.00 751.50 L 596.30 753.60 L 594.00 754.50 L 589.00 755.30 L 584.00 754.80 L 579.30 753.10 L 575.30 750.00 L 573.20 747.60 L 571.60 744.90 L 570.30 742.10 L 568.80 735.90 L 568.60 732.70 L 568.80 727.90 L 569.60 723.30 L 571.80 716.60 L 573.30 713.40 L 575.20 710.30 L 579.70 704.90 L 582.40 702.70 L 585.30 700.80 L 588.60 699.30 Z" fill="#030201" fill-rule="nonzero" node-id="95" stroke="none" target-height="57.399963" target-width="45.80005" target-x="568.6" target-y="697.9"></path><path d="M 773.90 700.80 L 776.90 700.30 L 779.70 700.30 L 782.50 700.80 L 785.20 701.70 L 787.60 703.00 L 789.90 704.80 L 792.00 706.80 L 793.70 709.00 L 795.10 711.50 L 796.10 714.20 L 796.70 717.00 L 796.90 719.90 L 797.10 724.20 L 796.80 728.50 L 796.00 732.80 L 794.70 736.90 L 793.00 740.80 L 790.80 744.50 L 788.20 748.00 L 785.20 751.10 L 781.90 753.90 L 776.90 756.50 L 774.10 757.20 L 771.40 757.60 L 768.60 757.40 L 765.80 756.70 L 761.70 754.60 L 759.90 753.20 L 757.70 750.60 L 755.80 747.70 L 754.30 744.50 L 753.30 741.30 L 752.60 737.20 L 752.50 733.10 L 752.70 729.00 L 753.50 724.90 L 754.60 720.90 L 756.20 717.10 L 758.30 713.40 L 760.60 710.10 L 763.40 707.10 L 766.60 704.60 L 770.10 702.50 L 773.90 700.80 Z" fill="#030201" fill-rule="nonzero" node-id="97" stroke="none" target-height="57.299988" target-width="44.599976" target-x="752.5" target-y="700.3"></path><path d="M 717.40 758.50 L 733.20 752.00 L 732.40 756.10 L 731.10 760.10 L 727.50 767.60 L 722.60 774.40 L 716.50 780.10 L 708.80 785.10 L 704.40 787.10 L 699.90 788.80 L 690.40 790.90 L 685.50 791.40 L 675.70 791.40 L 670.90 790.90 L 664.90 789.60 L 658.90 787.90 L 653.20 785.70 L 647.70 782.90 L 644.20 780.70 L 638.00 775.30 L 632.80 768.80 L 630.70 765.20 L 628.90 761.40 L 627.60 757.40 L 626.70 753.30 L 641.50 758.00 L 649.00 760.00 L 656.60 761.60 L 664.30 762.70 L 672.00 763.30 L 687.30 763.30 L 695.00 762.90 L 707.60 761.10 L 717.40 758.50 Z" fill="#030201" fill-rule="nonzero" node-id="99" stroke="none" target-height="39.400024" target-width="106.5" target-x="626.7" target-y="752"></path><path d="M 833.80 851.50 L 848.90 851.10 L 865.60 851.30 L 867.20 851.90 L 868.50 852.90 L 869.50 854.20 L 870.20 855.80 L 870.10 860.80 L 869.60 864.00 L 862.40 888.40 L 860.80 892.10 L 857.90 896.60 L 854.40 899.70 L 851.10 901.20 L 845.60 902.00 L 825.00 902.00 L 820.00 901.70 L 816.70 900.80 L 815.20 899.80 L 813.90 898.60 L 812.10 895.80 L 811.50 892.50 L 813.10 884.90 L 818.40 867.60 L 819.90 864.10 L 821.80 860.70 L 824.20 857.50 L 826.90 854.80 L 829.00 853.30 L 831.30 852.30 L 833.80 851.50 Z M 832.50 859.30 L 829.20 862.60 L 826.50 867.80 L 820.10 889.20 L 819.40 895.00 L 851.30 893.90 L 854.00 888.50 L 856.10 882.80 L 861.30 865.30 L 863.50 859.60 L 861.70 858.70 L 857.90 858.20 L 848.80 859.00 L 839.00 858.90 L 832.50 859.30 Z" fill="#030201" fill-rule="nonzero" node-id="101" stroke="none" target-height="50.900024" target-width="58.700012" target-x="811.5" target-y="851.1"></path><path d="M 1007.20 853.80 L 1009.60 853.70 L 1010.70 854.10 L 1011.50 855.10 L 1011.10 859.20 L 1006.10 881.60 L 1004.40 885.70 L 1003.00 886.40 L 1000.50 886.30 L 999.60 885.40 L 999.20 884.30 L 999.30 881.90 L 1004.50 857.60 L 1005.70 854.50 L 1007.20 853.80 Z" fill="#030201" fill-rule="nonzero" node-id="103" stroke="none" target-height="32.700012" target-width="12.299988" target-x="999.2" target-y="853.7"></path><path d="M 1027.40 853.90 L 1032.80 853.90 L 1032.80 857.80 L 1032.30 861.60 L 1028.70 876.80 L 1027.00 882.40 L 1025.20 884.90 L 1022.70 885.70 L 1020.60 884.10 L 1021.80 876.50 L 1023.50 868.90 L 1027.40 853.90 Z" fill="#030201" fill-rule="nonzero" node-id="105" stroke="none" target-height="31.799988" target-width="12.200073" target-x="1020.6" target-y="853.9"></path><path d="M 982.10 855.30 L 985.70 854.90 L 987.40 855.20 L 989.00 856.10 L 985.00 877.00 L 983.80 882.20 L 982.90 884.70 L 981.70 887.10 L 980.50 887.40 L 976.70 887.40 L 976.60 884.20 L 977.30 877.90 L 982.10 855.30 Z" fill="#030201" fill-rule="nonzero" node-id="107" stroke="none" target-height="32.5" target-width="12.400024" target-x="976.6" target-y="854.9"></path><path d="M 769.80 1062.90 L 777.60 1061.90 L 789.40 1061.60 L 800.10 1060.90 L 804.50 1061.60 L 806.50 1062.60 L 804.80 1064.70 L 802.00 1065.90 L 796.10 1066.60 L 782.70 1067.30 L 769.30 1067.00 L 769.80 1062.90 Z" fill="#030201" fill-rule="nonzero" node-id="109" stroke="none" target-height="6.4000244" target-width="37.200012" target-x="769.3" target-y="1060.9"></path><path d="M 786.70 1076.70 L 795.00 1076.50 L 803.30 1077.00 L 802.50 1080.80 L 782.80 1081.90 L 772.90 1081.80 L 763.00 1081.40 L 763.00 1077.70 L 768.90 1077.20 L 786.70 1076.70 Z" fill="#030201" fill-rule="nonzero" node-id="111" stroke="none" target-height="5.4000244" target-width="40.299988" target-x="763" target-y="1076.5"></path><path d="M 788.60 1095.20 L 793.30 1095.10 L 795.60 1095.70 L 797.00 1097.30 L 795.80 1098.80 L 794.20 1099.70 L 790.60 1100.50 L 774.70 1101.70 L 770.60 1101.80 L 768.30 1101.40 L 766.30 1100.50 L 765.60 1099.70 L 765.10 1098.60 L 765.90 1097.40 L 767.00 1096.80 L 774.30 1095.70 L 788.60 1095.20 Z" fill="#030201" fill-rule="nonzero" node-id="113" stroke="none" target-height="6.7000732" target-width="31.900024" target-x="765.1" target-y="1095.1"></path><path d="M 645.00 236.70 L 665.70 235.70 L 699.00 237.20 L 721.80 239.70 L 733.20 241.50 L 744.50 243.80 L 755.70 246.40 L 766.80 249.40 L 769.40 254.30 L 772.40 258.80 L 776.00 262.90 L 779.90 266.70 L 784.20 270.10 L 788.80 273.20 L 793.50 275.90 L 803.40 280.50 L 808.20 282.00 L 813.10 283.10 L 817.40 276.70 L 821.40 270.00 L 838.10 278.50 L 846.20 283.20 L 854.10 288.30 L 846.60 293.40 L 845.20 291.70 L 843.40 290.60 L 841.50 289.90 L 820.30 285.70 L 815.30 284.80 L 813.40 284.80 L 810.00 286.20 L 800.90 292.90 L 796.10 295.70 L 791.10 298.10 L 785.90 299.90 L 780.60 301.40 L 775.10 302.50 L 766.70 303.60 L 758.20 304.00 L 741.50 303.50 L 733.50 302.30 L 725.50 300.60 L 720.20 299.10 L 710.20 295.00 L 705.50 292.40 L 701.10 289.30 L 696.90 285.70 L 693.00 281.10 L 691.50 278.60 L 689.60 274.50 L 688.30 270.20 L 687.40 265.70 L 687.10 257.40 L 688.10 249.80 L 690.50 238.50 L 682.10 238.30 L 673.80 238.60 L 665.50 239.30 L 653.10 241.10 L 640.80 243.50 L 623.70 248.20 L 618.10 250.10 L 607.20 254.90 L 586.30 247.30 L 595.90 244.70 L 605.60 242.40 L 615.40 240.60 L 630.20 238.30 L 645.00 236.70 Z" fill="#ead7c6" fill-rule="nonzero" node-id="115" stroke="none" target-height="68.3" target-width="267.8" target-x="586.3" target-y="235.7"></path><path d="M 556.40 297.70 L 563.30 296.60 L 566.90 296.60 L 570.50 296.90 L 573.90 297.70 L 577.30 298.80 L 580.40 300.30 L 583.30 302.30 L 585.90 304.80 L 587.60 307.10 L 590.00 312.10 L 590.60 314.80 L 591.10 318.50 L 590.90 322.20 L 590.20 325.90 L 589.00 329.50 L 587.30 332.70 L 585.10 335.80 L 581.90 338.90 L 578.30 341.60 L 574.40 343.80 L 570.10 345.40 L 565.80 346.50 L 561.30 347.00 L 558.40 346.70 L 555.60 345.70 L 554.50 344.80 L 553.70 343.60 L 554.10 340.30 L 556.30 330.60 L 556.80 327.30 L 556.50 320.40 L 554.70 313.60 L 550.30 302.60 L 550.80 300.80 L 551.90 299.80 L 556.40 297.70 Z" fill="#ead7c6" fill-rule="nonzero" node-id="117" stroke="none" target-height="50.399994" target-width="40.799988" target-x="550.3" target-y="296.6"></path><path d="M 793.80 350.00 L 801.20 348.90 L 806.10 349.30 L 808.50 350.10 L 809.90 351.60 L 810.70 353.30 L 811.10 355.20 L 811.20 357.20 L 810.40 361.10 L 809.40 364.00 L 807.80 366.60 L 805.90 369.00 L 803.60 371.00 L 798.40 374.40 L 794.50 376.30 L 786.30 379.30 L 782.10 380.30 L 777.80 380.80 L 771.20 380.80 L 769.00 380.00 L 766.60 378.10 L 765.90 376.80 L 765.60 374.50 L 765.80 372.30 L 766.30 370.20 L 767.80 367.10 L 769.70 364.40 L 773.00 360.90 L 776.60 357.80 L 780.60 355.20 L 784.80 353.00 L 789.20 351.30 L 793.80 350.00 Z" fill="#ead7c6" fill-rule="nonzero" node-id="119" stroke="none" target-height="31.899994" target-width="45.600037" target-x="765.6" target-y="348.9"></path><path d="M 379.50 413.90 L 399.50 387.20 L 409.70 373.90 L 420.20 360.90 L 421.20 368.90 L 422.10 372.80 L 423.40 376.50 L 425.30 380.00 L 427.60 383.20 L 432.90 389.10 L 428.20 394.00 L 423.80 399.20 L 402.30 425.10 L 398.40 430.50 L 395.80 427.10 L 392.90 424.10 L 386.40 418.80 L 379.50 413.90 Z" fill="#ead7c6" fill-rule="nonzero" node-id="121" stroke="none" target-height="69.600006" target-width="53.399994" target-x="379.5" target-y="360.9"></path><path d="M 1012.20 531.40 L 1036.30 524.10 L 1044.80 541.10 L 1049.90 550.10 L 1052.50 557.40 L 1053.80 563.10 L 1057.10 583.40 L 1058.00 590.80 L 1058.30 598.10 L 1050.80 599.00 L 1043.30 600.20 L 1042.50 595.70 L 1039.90 587.00 L 1034.90 574.30 L 1027.20 556.90 L 1018.10 537.00 L 1016.50 534.80 L 1014.60 532.90 L 1012.20 531.40 Z" fill="#ead7c6" fill-rule="nonzero" node-id="123" stroke="none" target-height="76.10004" target-width="46.100037" target-x="1012.2" target-y="524.1"></path><path d="M 661.40 576.80 L 663.50 569.00 L 664.90 561.10 L 665.70 566.10 L 717.30 566.50 L 753.80 568.20 L 790.10 571.20 L 808.90 573.90 L 818.40 574.70 L 820.00 563.70 L 819.80 574.20 L 820.80 581.20 L 821.90 584.50 L 823.30 587.60 L 825.30 590.40 L 827.90 592.90 L 806.10 588.70 L 784.20 585.10 L 762.30 582.10 L 745.70 580.40 L 729.20 579.00 L 712.60 578.10 L 687.30 577.20 L 661.40 576.80 Z" fill="#ead7c6" fill-rule="nonzero" node-id="125" stroke="none" target-height="31.800049" target-width="166.5" target-x="661.4" target-y="561.1"></path><path d="M 422.20 590.20 L 435.90 586.60 L 449.70 583.40 L 463.60 580.60 L 484.50 576.90 L 505.50 573.70 L 504.10 579.90 L 503.20 587.20 L 490.80 589.10 L 466.10 593.80 L 441.80 599.80 L 429.70 603.30 L 420.30 606.40 L 411.10 609.90 L 402.10 613.90 L 399.80 612.00 L 395.90 607.30 L 393.60 603.40 L 391.80 599.20 L 399.50 597.20 L 422.20 590.20 Z" fill="#ead7c6" fill-rule="nonzero" node-id="127" stroke="none" target-height="40.200012" target-width="113.70001" target-x="391.8" target-y="573.7"></path><path d="M 919.70 618.80 L 925.10 610.00 L 930.20 601.00 L 939.80 605.90 L 958.70 616.50 L 967.80 622.20 L 976.70 628.40 L 985.30 634.90 L 983.30 638.50 L 978.00 650.00 L 968.90 643.70 L 959.40 638.00 L 949.70 632.70 L 939.80 627.80 L 919.70 618.80 Z" fill="#ead7c6" fill-rule="nonzero" node-id="129" stroke="none" target-height="49" target-width="65.599976" target-x="919.7" target-y="601"></path><path d="M 586.20 643.50 L 594.60 639.40 L 603.10 635.80 L 611.90 632.80 L 620.80 630.20 L 629.90 628.10 L 639.00 626.30 L 657.50 623.80 L 679.10 622.40 L 703.80 622.30 L 716.20 622.90 L 728.50 624.10 L 740.80 625.90 L 748.30 627.50 L 755.70 629.50 L 763.00 632.10 L 770.10 635.10 L 776.90 638.70 L 783.40 642.80 L 788.00 646.20 L 792.20 650.10 L 796.20 654.20 L 803.00 663.20 L 805.70 667.70 L 808.00 672.40 L 811.00 679.70 L 813.40 687.30 L 815.40 695.00 L 826.80 747.90 L 832.70 777.60 L 838.10 807.40 L 838.30 812.50 L 838.00 817.70 L 798.60 818.10 L 793.20 818.60 L 790.50 819.30 L 786.60 821.40 L 784.20 824.20 L 782.50 827.50 L 781.10 831.00 L 777.00 845.40 L 763.60 897.20 L 724.30 1053.00 L 719.60 1052.50 L 710.30 1050.80 L 703.50 1048.80 L 696.80 1046.30 L 690.20 1043.50 L 683.90 1040.30 L 674.00 1034.70 L 664.40 1028.70 L 644.40 1014.60 L 643.00 1012.80 L 643.30 1005.00 L 643.10 998.10 L 642.50 991.30 L 641.20 984.50 L 638.40 975.90 L 636.40 971.70 L 634.60 968.60 L 632.40 965.80 L 630.00 963.20 L 627.20 960.90 L 624.30 958.90 L 621.10 957.30 L 617.80 956.10 L 614.30 955.40 L 610.70 955.20 L 606.30 955.10 L 602.00 955.60 L 597.80 956.70 L 593.80 958.30 L 590.00 960.20 L 586.30 962.60 L 579.80 968.30 L 576.90 971.60 L 573.30 976.70 L 570.10 982.10 L 567.30 987.70 L 565.00 993.50 L 563.00 999.50 L 560.20 1011.80 L 559.30 1018.00 L 558.20 1029.50 L 558.20 1040.10 L 559.40 1055.90 L 558.50 1059.90 L 554.30 1058.20 L 550.30 1056.20 L 546.50 1053.80 L 541.00 1049.80 L 535.90 1045.40 L 530.70 1040.10 L 525.90 1034.50 L 521.50 1028.60 L 517.50 1022.30 L 514.00 1015.80 L 511.00 1009.00 L 508.50 1002.10 L 506.50 994.90 L 504.10 983.70 L 502.20 972.40 L 500.80 961.00 L 499.90 949.60 L 498.90 926.70 L 498.90 910.10 L 499.20 893.60 L 500.00 877.10 L 501.20 860.60 L 502.90 844.20 L 505.10 827.80 L 509.80 797.90 L 515.70 768.30 L 523.00 738.90 L 529.20 717.80 L 532.60 707.30 L 536.60 697.00 L 539.70 690.40 L 543.10 683.90 L 547.00 677.60 L 550.30 672.80 L 554.00 668.30 L 562.20 660.00 L 571.30 652.70 L 578.60 647.80 L 586.20 643.50 Z M 588.60 699.30 L 585.30 700.80 L 582.40 702.70 L 579.70 704.90 L 575.20 710.30 L 573.30 713.40 L 571.80 716.60 L 569.60 723.30 L 568.80 727.90 L 568.60 732.70 L 568.80 735.90 L 570.30 742.10 L 571.60 744.90 L 573.20 747.60 L 575.30 750.00 L 577.20 751.70 L 579.30 753.10 L 584.00 754.80 L 589.00 755.30 L 594.00 754.50 L 596.30 753.60 L 600.00 751.50 L 603.30 748.90 L 606.30 745.90 L 608.80 742.60 L 611.00 738.90 L 612.60 735.10 L 613.80 731.00 L 614.40 726.90 L 614.30 718.80 L 613.70 715.00 L 612.50 711.30 L 610.90 707.90 L 607.90 703.80 L 606.10 702.00 L 603.50 700.20 L 600.70 698.90 L 597.70 698.20 L 594.60 697.90 L 591.50 698.30 L 588.60 699.30 Z M 773.90 700.80 L 770.10 702.50 L 766.60 704.60 L 763.40 707.10 L 760.60 710.10 L 758.30 713.40 L 756.20 717.10 L 754.60 720.90 L 753.50 724.90 L 752.70 729.00 L 752.50 733.10 L 752.60 737.20 L 753.30 741.30 L 754.30 744.50 L 755.80 747.70 L 757.70 750.60 L 759.90 753.20 L 763.70 755.80 L 765.80 756.70 L 768.60 757.40 L 771.40 757.60 L 774.10 757.20 L 776.90 756.50 L 781.90 753.90 L 785.20 751.10 L 788.20 748.00 L 790.80 744.50 L 793.00 740.80 L 794.70 736.90 L 796.00 732.80 L 796.80 728.50 L 797.10 724.20 L 796.70 717.00 L 796.10 714.20 L 795.10 711.50 L 793.70 709.00 L 792.00 706.80 L 787.60 703.00 L 785.20 701.70 L 782.50 700.80 L 779.70 700.30 L 776.90 700.30 L 773.90 700.80 Z M 717.40 758.50 L 707.60 761.10 L 695.00 762.90 L 687.30 763.30 L 672.00 763.30 L 664.30 762.70 L 656.60 761.60 L 649.00 760.00 L 641.50 758.00 L 626.70 753.30 L 627.60 757.40 L 628.90 761.40 L 630.70 765.20 L 632.80 768.80 L 638.00 775.30 L 644.20 780.70 L 647.70 782.90 L 653.20 785.70 L 658.90 787.90 L 664.90 789.60 L 670.90 790.90 L 675.70 791.40 L 685.50 791.40 L 690.40 790.90 L 699.90 788.80 L 704.40 787.10 L 708.80 785.10 L 716.50 780.10 L 722.60 774.40 L 727.50 767.60 L 731.10 760.10 L 732.40 756.10 L 733.20 752.00 L 717.40 758.50 Z M 569.90 760.90 L 562.70 762.50 L 559.20 763.90 L 556.00 765.60 L 554.10 767.10 L 551.00 771.00 L 550.30 772.60 L 550.10 774.20 L 550.30 775.80 L 551.10 778.10 L 552.60 780.30 L 556.30 783.60 L 559.70 785.40 L 563.30 786.50 L 570.80 787.80 L 578.40 788.20 L 582.50 787.90 L 586.70 787.40 L 590.90 786.50 L 594.70 785.10 L 597.20 783.80 L 599.40 782.10 L 601.40 780.10 L 602.70 778.20 L 603.40 775.90 L 603.60 773.60 L 603.10 771.30 L 602.50 769.90 L 600.50 767.60 L 597.60 765.30 L 594.50 763.50 L 591.20 762.20 L 584.30 760.70 L 580.70 760.40 L 575.20 760.40 L 569.90 760.90 Z M 771.20 764.90 L 762.60 766.80 L 757.10 769.10 L 754.60 770.70 L 751.80 773.50 L 750.80 775.30 L 750.20 778.50 L 751.00 781.10 L 752.50 783.40 L 754.30 785.40 L 756.40 787.00 L 761.20 789.40 L 763.90 790.30 L 768.00 791.10 L 771.90 791.50 L 786.20 791.40 L 793.10 790.10 L 796.40 788.90 L 799.40 787.20 L 802.30 785.00 L 803.50 783.70 L 804.30 782.30 L 804.90 780.70 L 805.00 777.40 L 803.80 774.20 L 801.60 771.70 L 798.70 769.50 L 795.60 767.80 L 789.00 765.50 L 781.90 764.50 L 776.50 764.40 L 771.20 764.90 Z" fill="#ead7c6" fill-rule="nonzero" node-id="131" stroke="none" target-height="437.60004" target-width="339.4" target-x="498.9" target-y="622.3"></path><path d="M 864.20 627.50 L 867.10 626.60 L 870.00 626.00 L 873.00 626.00 L 886.30 629.50 L 896.30 632.80 L 906.30 636.60 L 916.10 640.70 L 925.70 645.30 L 935.10 650.30 L 944.30 655.70 L 953.20 661.50 L 960.80 667.10 L 968.00 673.10 L 972.60 677.50 L 976.90 682.00 L 980.80 686.90 L 984.40 692.00 L 987.40 697.50 L 990.00 703.20 L 991.40 707.40 L 992.40 711.60 L 992.80 715.90 L 992.80 720.30 L 992.30 724.50 L 991.40 728.80 L 990.00 732.90 L 988.10 736.80 L 985.80 740.50 L 982.80 744.60 L 975.60 751.70 L 963.90 761.50 L 958.20 763.90 L 952.40 765.70 L 940.40 768.40 L 928.30 770.40 L 913.30 771.50 L 924.00 765.30 L 929.20 761.90 L 934.10 758.10 L 937.10 755.30 L 939.80 752.30 L 944.50 745.10 L 946.30 741.30 L 947.60 737.40 L 948.90 729.10 L 949.00 724.90 L 948.50 718.50 L 947.60 712.10 L 946.10 705.90 L 942.50 694.10 L 940.10 688.70 L 937.20 683.60 L 930.20 674.10 L 926.20 669.60 L 919.90 663.30 L 913.30 657.30 L 901.40 648.00 L 895.00 643.80 L 881.90 636.20 L 869.50 630.40 L 864.20 627.50 Z" fill="#ead7c6" fill-rule="nonzero" node-id="133" stroke="none" target-height="145.5" target-width="128.59998" target-x="864.2" target-y="626"></path><path d="M 422.70 640.20 L 435.20 637.20 L 447.90 634.90 L 454.30 634.30 L 460.70 634.40 L 444.40 640.80 L 436.40 644.40 L 423.50 651.30 L 414.00 658.00 L 408.10 662.90 L 402.50 668.30 L 399.10 672.10 L 393.10 680.40 L 390.60 684.90 L 388.50 689.60 L 386.90 694.50 L 386.10 698.30 L 385.90 705.90 L 386.40 709.70 L 387.50 714.70 L 389.30 719.50 L 391.60 724.10 L 394.40 728.50 L 397.70 732.40 L 401.30 736.00 L 406.40 740.00 L 411.80 743.60 L 417.40 746.60 L 429.30 751.60 L 444.80 756.40 L 454.10 758.70 L 446.40 759.90 L 442.50 760.20 L 427.30 758.90 L 416.10 757.30 L 404.90 755.30 L 393.90 752.80 L 380.90 749.00 L 374.70 746.50 L 368.70 743.40 L 361.30 738.40 L 357.90 735.40 L 354.70 732.00 L 351.80 728.40 L 349.20 724.40 L 347.10 720.20 L 345.50 715.80 L 344.30 711.30 L 343.60 706.70 L 343.50 702.10 L 344.00 697.30 L 345.10 692.70 L 346.60 688.30 L 348.50 684.00 L 350.80 679.90 L 353.40 676.00 L 359.60 668.90 L 366.80 662.80 L 372.40 659.00 L 378.30 655.70 L 384.30 652.70 L 393.60 648.90 L 403.20 645.70 L 422.70 640.20 Z" fill="#ead7c6" fill-rule="nonzero" node-id="135" stroke="none" target-height="125.900024" target-width="117.20001" target-x="343.5" target-y="634.3"></path><path d="M 418.40 999.50 L 432.00 997.00 L 438.60 995.20 L 445.10 992.80 L 449.20 990.80 L 457.00 985.80 L 458.40 989.40 L 459.10 993.20 L 458.40 1017.30 L 458.40 1031.80 L 457.70 1044.90 L 451.90 1035.90 L 445.60 1027.20 L 441.10 1021.60 L 436.30 1016.40 L 421.30 1002.80 L 418.40 999.50 Z" fill="#ead7c6" fill-rule="nonzero" node-id="137" stroke="none" target-height="59.100037" target-width="40.700012" target-x="418.4" target-y="985.8"></path><path d="M 642.50 1050.70 L 641.80 1034.00 L 642.10 1029.90 L 643.00 1025.80 L 652.50 1033.00 L 662.30 1039.70 L 672.40 1045.90 L 688.90 1054.60 L 695.10 1057.20 L 701.50 1059.30 L 714.60 1062.50 L 721.20 1063.60 L 719.00 1075.10 L 713.10 1097.60 L 699.90 1099.10 L 693.30 1099.30 L 680.20 1098.30 L 673.80 1097.10 L 669.50 1095.90 L 661.60 1092.50 L 658.00 1090.30 L 654.70 1087.60 L 651.70 1084.30 L 649.20 1081.10 L 647.30 1077.70 L 644.70 1070.30 L 643.30 1062.50 L 642.50 1050.70 Z" fill="#ead7c6" fill-rule="nonzero" node-id="139" stroke="none" target-height="73.5" target-width="79.400024" target-x="641.8" target-y="1025.8"></path><path d="M 567.50 253.00 L 581.50 248.40 L 586.30 247.30 L 607.20 254.90 L 612.30 257.40 L 617.10 260.40 L 621.70 263.80 L 626.00 267.50 L 629.90 271.60 L 633.30 276.10 L 637.60 283.40 L 640.50 291.50 L 641.60 297.50 L 642.20 303.60 L 642.10 309.60 L 641.50 315.70 L 640.50 321.60 L 639.00 327.60 L 635.00 339.20 L 632.70 344.70 L 628.90 352.50 L 624.60 360.00 L 620.00 367.20 L 614.90 374.20 L 609.40 380.80 L 603.50 387.20 L 597.20 393.10 L 590.60 398.60 L 580.00 405.90 L 560.80 415.40 L 555.40 419.20 L 553.10 421.70 L 551.30 424.40 L 550.40 426.40 L 549.60 430.70 L 549.70 433.60 L 550.20 436.30 L 551.00 438.90 L 552.90 442.70 L 555.30 446.10 L 561.10 452.30 L 564.60 455.20 L 568.30 457.90 L 572.20 460.10 L 578.30 463.10 L 606.10 473.90 L 620.20 480.50 L 630.80 487.00 L 635.70 490.70 L 640.40 494.70 L 648.40 503.50 L 651.80 507.90 L 654.80 512.60 L 659.80 522.70 L 661.70 527.90 L 663.30 533.30 L 664.50 538.80 L 665.20 544.40 L 665.60 549.90 L 665.40 555.50 L 664.90 561.10 L 663.50 569.00 L 661.40 576.80 L 617.30 576.90 L 593.50 578.20 L 553.90 580.90 L 538.10 582.40 L 508.10 586.00 L 503.30 586.20 L 504.10 579.90 L 505.50 573.70 L 520.30 542.80 L 524.90 529.50 L 528.10 515.50 L 529.20 508.40 L 529.80 501.20 L 530.00 494.00 L 529.70 486.90 L 528.90 479.70 L 527.60 472.60 L 526.10 467.10 L 524.20 461.70 L 521.90 456.50 L 519.10 451.50 L 512.70 442.00 L 505.10 433.50 L 500.60 429.40 L 490.90 421.90 L 483.30 416.80 L 475.40 412.10 L 459.10 403.60 L 445.50 397.20 L 436.90 392.10 L 432.90 389.10 L 427.60 383.20 L 425.30 380.00 L 423.40 376.50 L 422.10 372.80 L 421.20 368.90 L 420.20 360.90 L 435.70 342.50 L 452.10 324.80 L 460.80 316.50 L 478.60 301.40 L 487.60 294.50 L 496.80 288.00 L 506.30 281.80 L 516.00 276.00 L 525.90 270.50 L 536.00 265.50 L 546.30 260.90 L 556.80 256.70 L 567.50 253.00 Z M 556.40 297.70 L 551.90 299.80 L 550.80 300.80 L 550.30 302.60 L 554.70 313.60 L 556.50 320.40 L 556.80 327.30 L 556.30 330.60 L 554.10 340.30 L 553.70 343.60 L 554.50 344.80 L 555.60 345.70 L 558.40 346.70 L 561.30 347.00 L 565.80 346.50 L 570.10 345.40 L 574.40 343.80 L 578.30 341.60 L 581.90 338.90 L 585.10 335.80 L 587.30 332.70 L 589.00 329.50 L 590.20 325.90 L 590.90 322.20 L 591.10 318.50 L 590.60 314.80 L 590.00 312.10 L 587.60 307.10 L 585.90 304.80 L 583.30 302.30 L 580.40 300.30 L 577.30 298.80 L 573.90 297.70 L 570.50 296.90 L 563.30 296.60 L 556.40 297.70 Z" fill="#c24e4f" fill-rule="nonzero" node-id="141" stroke="none" target-height="338.90002" target-width="245.39996" target-x="420.2" target-y="247.3"></path><path d="M 854.10 288.30 L 857.70 291.50 L 870.20 300.00 L 878.60 306.00 L 886.60 312.40 L 894.40 319.20 L 901.90 326.20 L 909.00 333.70 L 918.30 344.20 L 927.00 355.00 L 943.60 377.60 L 970.50 417.50 L 981.50 434.50 L 1012.20 482.10 L 1020.70 495.90 L 1028.70 509.90 L 1036.30 524.10 L 1012.20 531.40 L 975.90 547.90 L 971.40 550.30 L 967.30 553.20 L 959.70 560.00 L 952.70 567.40 L 944.10 577.80 L 936.60 589.10 L 925.10 610.00 L 919.70 618.80 L 899.70 611.40 L 874.30 603.80 L 858.90 599.90 L 827.90 592.90 L 825.30 590.40 L 823.30 587.60 L 821.90 584.50 L 820.10 577.70 L 819.80 574.20 L 820.00 563.70 L 820.70 559.10 L 825.70 536.60 L 808.70 535.30 L 802.80 534.40 L 797.00 533.10 L 791.30 531.40 L 785.70 529.30 L 774.90 524.10 L 764.80 517.90 L 759.10 513.70 L 753.60 509.20 L 748.50 504.40 L 743.50 499.30 L 738.90 493.90 L 734.60 488.30 L 730.70 482.40 L 727.10 476.30 L 724.00 469.90 L 721.30 463.40 L 719.00 456.70 L 717.20 449.80 L 716.00 442.70 L 715.20 435.50 L 714.90 428.30 L 715.10 421.10 L 715.90 413.80 L 717.10 406.70 L 718.80 399.70 L 721.10 392.80 L 723.90 386.10 L 727.10 379.60 L 730.80 373.40 L 734.80 367.30 L 739.30 361.60 L 744.10 356.10 L 749.30 351.00 L 754.80 346.30 L 760.60 342.00 L 775.20 333.20 L 779.10 336.40 L 781.40 336.90 L 784.70 336.50 L 798.50 333.50 L 807.10 332.90 L 820.10 333.60 L 833.00 335.40 L 838.00 336.40 L 842.90 337.70 L 847.70 339.50 L 857.00 343.90 L 861.30 346.60 L 869.20 351.70 L 881.80 360.90 L 891.10 369.30 L 895.40 373.80 L 899.30 378.60 L 903.00 383.70 L 905.40 387.80 L 907.20 392.10 L 908.80 396.50 L 916.50 424.10 L 918.20 428.70 L 924.70 428.60 L 924.90 425.10 L 924.20 418.20 L 923.00 413.10 L 921.40 408.10 L 915.00 392.20 L 908.70 380.60 L 901.00 369.80 L 896.70 364.70 L 892.20 359.90 L 874.80 344.20 L 871.50 339.70 L 870.30 337.20 L 870.50 332.30 L 872.40 322.50 L 872.30 320.00 L 871.70 317.60 L 866.70 318.00 L 865.70 318.50 L 865.00 319.60 L 863.40 323.10 L 860.30 334.20 L 854.90 333.80 L 838.90 328.80 L 833.20 327.80 L 810.40 324.90 L 830.70 326.30 L 831.70 318.00 L 832.70 313.90 L 834.00 309.90 L 835.80 306.10 L 837.90 302.50 L 840.30 299.10 L 843.20 296.10 L 846.60 293.40 L 854.10 288.30 Z M 793.80 350.00 L 789.20 351.30 L 784.80 353.00 L 780.60 355.20 L 776.60 357.80 L 773.00 360.90 L 769.70 364.40 L 767.80 367.10 L 766.30 370.20 L 765.80 372.30 L 765.60 374.50 L 765.90 376.80 L 767.60 379.20 L 769.00 380.00 L 771.20 380.80 L 773.40 381.00 L 777.80 380.80 L 782.10 380.30 L 790.50 377.90 L 794.50 376.30 L 801.00 372.80 L 805.90 369.00 L 807.80 366.60 L 809.40 364.00 L 810.90 359.20 L 811.10 355.20 L 810.70 353.30 L 809.90 351.60 L 808.50 350.10 L 806.10 349.30 L 801.20 348.90 L 793.80 350.00 Z M 903.30 474.00 L 899.50 478.10 L 892.50 487.10 L 887.10 492.30 L 881.40 497.00 L 875.30 501.40 L 868.90 505.20 L 862.20 508.50 L 855.30 511.10 L 849.90 512.70 L 844.50 513.90 L 839.00 514.60 L 833.40 515.00 L 819.80 513.80 L 813.00 514.10 L 811.10 520.30 L 814.10 521.20 L 820.30 522.00 L 839.20 522.40 L 839.20 526.10 L 837.70 541.00 L 837.90 544.80 L 842.20 545.00 L 843.60 544.80 L 844.70 544.20 L 845.50 542.90 L 846.70 539.20 L 849.10 527.60 L 851.20 522.90 L 852.70 520.70 L 856.60 518.10 L 871.90 512.00 L 878.10 508.90 L 884.10 505.40 L 889.80 501.40 L 895.20 497.00 L 904.70 487.10 L 908.60 481.60 L 910.10 477.40 L 910.40 475.10 L 906.90 474.00 L 905.10 473.70 L 903.30 474.00 Z" fill="#c24e4f" fill-rule="nonzero" node-id="143" stroke="none" target-height="330.5" target-width="321.40002" target-x="714.9" target-y="288.3"></path><path d="M 327.50 494.20 L 343.90 466.80 L 352.50 453.40 L 365.80 433.50 L 379.50 413.90 L 386.40 418.80 L 392.90 424.10 L 395.80 427.10 L 398.40 430.50 L 404.00 442.10 L 408.30 454.30 L 410.30 462.60 L 411.80 471.10 L 412.70 479.70 L 413.00 488.30 L 412.70 496.90 L 411.80 505.50 L 410.80 511.10 L 409.20 516.60 L 407.30 521.90 L 398.10 542.70 L 396.00 548.00 L 393.40 556.20 L 391.30 564.70 L 389.70 576.30 L 389.40 582.00 L 389.70 587.80 L 390.50 593.50 L 391.80 599.20 L 393.60 603.40 L 395.90 607.30 L 399.80 612.00 L 402.10 613.90 L 392.00 618.80 L 382.20 624.00 L 372.50 629.70 L 363.20 635.90 L 354.20 642.50 L 345.50 649.50 L 336.40 658.50 L 332.20 663.40 L 328.50 668.60 L 325.20 674.10 L 322.50 679.90 L 320.00 687.70 L 318.20 697.90 L 317.70 704.10 L 312.30 696.50 L 307.50 688.70 L 303.20 680.50 L 299.30 672.10 L 296.00 663.50 L 293.20 654.70 L 290.80 645.80 L 289.00 636.80 L 287.60 627.60 L 287.00 610.80 L 287.70 593.90 L 289.40 585.00 L 291.40 576.30 L 293.80 567.60 L 296.60 559.10 L 300.80 547.90 L 305.50 536.80 L 310.60 526.00 L 318.80 509.90 L 327.50 494.20 Z" fill="#c24e4f" fill-rule="nonzero" node-id="145" stroke="none" target-height="290.19998" target-width="126" target-x="287" target-y="413.9"></path><path d="M 1043.30 600.20 L 1050.80 599.00 L 1058.30 598.10 L 1060.30 614.50 L 1060.80 622.70 L 1061.00 635.10 L 1060.60 647.40 L 1059.40 655.90 L 1057.80 664.20 L 1055.60 672.50 L 1053.00 680.60 L 1049.90 688.60 L 1046.20 696.20 L 1042.10 703.70 L 1037.50 710.90 L 1033.10 716.70 L 1028.30 722.30 L 1024.90 725.80 L 1017.40 732.00 L 1019.40 717.00 L 1019.50 712.00 L 1019.10 707.00 L 1018.20 702.00 L 1016.80 697.40 L 1013.00 688.60 L 1009.40 682.30 L 1005.20 676.40 L 995.90 665.40 L 990.30 659.90 L 984.30 654.70 L 978.00 650.00 L 983.30 638.50 L 985.30 634.90 L 988.90 630.30 L 992.80 626.00 L 996.90 622.10 L 1001.40 618.50 L 1007.70 614.10 L 1014.30 610.30 L 1021.30 607.00 L 1028.50 604.20 L 1035.80 602.00 L 1043.30 600.20 Z" fill="#c24e4f" fill-rule="nonzero" node-id="147" stroke="none" target-height="133.90002" target-width="83" target-x="978" target-y="598.1"></path><path d="M 492.90 635.70 L 498.20 634.70 L 499.20 642.60 L 499.00 650.60 L 498.00 651.70 L 496.70 652.50 L 460.80 665.90 L 450.60 669.30 L 412.50 680.70 L 405.10 682.50 L 407.40 679.10 L 410.10 675.90 L 416.10 670.30 L 422.40 665.10 L 429.50 660.30 L 436.90 656.00 L 444.50 652.20 L 460.30 645.70 L 480.60 639.20 L 492.90 635.70 Z" fill="#c24e4f" fill-rule="nonzero" node-id="149" stroke="none" target-height="47.799988" target-width="94.100006" target-x="405.1" target-y="634.7"></path><path d="M 849.70 634.70 L 854.30 635.80 L 858.80 637.30 L 873.20 643.60 L 880.20 647.10 L 887.10 650.90 L 893.80 655.10 L 900.10 659.80 L 893.80 658.00 L 875.20 651.30 L 866.80 648.70 L 849.70 644.50 L 849.10 642.10 L 849.00 639.60 L 849.70 634.70 Z" fill="#c24e4f" fill-rule="nonzero" node-id="151" stroke="none" target-height="25.099976" target-width="51.099976" target-x="849" target-y="634.7"></path><path d="M 848.20 654.90 L 852.10 655.10 L 856.00 655.70 L 859.70 656.60 L 863.40 658.00 L 879.00 664.60 L 925.20 685.60 L 927.80 687.00 L 930.10 688.70 L 931.40 690.10 L 933.00 693.60 L 934.00 698.20 L 934.40 702.80 L 934.40 707.50 L 933.80 712.20 L 932.80 716.80 L 931.30 721.30 L 926.00 717.60 L 918.60 711.20 L 901.70 698.50 L 887.10 688.10 L 855.40 666.10 L 851.30 662.40 L 849.80 660.20 L 848.70 657.70 L 848.20 654.90 Z" fill="#c24e4f" fill-rule="nonzero" node-id="153" stroke="none" target-height="66.39996" target-width="86.20001" target-x="848.2" target-y="654.9"></path><path d="M 468.90 672.90 L 498.50 661.30 L 497.90 669.30 L 497.20 671.80 L 495.20 673.80 L 487.90 678.60 L 474.20 686.80 L 460.20 694.40 L 445.90 701.60 L 402.70 722.40 L 399.10 716.60 L 397.60 713.50 L 395.80 706.90 L 395.50 703.50 L 395.60 700.20 L 396.30 696.90 L 397.60 693.60 L 409.70 690.90 L 433.60 684.50 L 451.30 678.90 L 468.90 672.90 Z" fill="#c24e4f" fill-rule="nonzero" node-id="155" stroke="none" target-height="61.100037" target-width="103" target-x="395.5" target-y="661.3"></path><path d="M 853.00 678.80 L 858.00 681.30 L 862.80 684.30 L 890.80 703.20 L 909.20 716.20 L 917.30 722.40 L 921.20 725.60 L 924.70 729.20 L 922.10 732.50 L 919.20 735.40 L 912.70 740.30 L 905.40 744.00 L 899.50 746.20 L 893.60 747.70 L 885.30 732.00 L 880.00 723.10 L 857.20 688.30 L 854.10 682.10 L 853.00 678.80 Z" fill="#c24e4f" fill-rule="nonzero" node-id="157" stroke="none" target-height="68.900024" target-width="71.70001" target-x="853" target-y="678.8"></path><path d="M 467.00 701.70 L 495.80 685.30 L 495.30 691.90 L 494.20 695.20 L 492.10 697.40 L 439.40 741.10 L 437.70 742.20 L 435.90 743.00 L 429.80 740.70 L 423.80 738.00 L 411.80 731.10 L 411.20 729.90 L 411.50 728.80 L 430.70 720.00 L 449.00 711.10 L 467.00 701.70 Z" fill="#c24e4f" fill-rule="nonzero" node-id="159" stroke="none" target-height="57.700012" target-width="84.599976" target-x="411.2" target-y="685.3"></path><path d="M 855.00 705.40 L 874.90 734.40 L 884.00 749.50 L 880.10 750.50 L 876.20 751.10 L 872.30 751.40 L 860.40 751.40 L 855.00 705.40 Z" fill="#c24e4f" fill-rule="nonzero" node-id="161" stroke="none" target-height="46" target-width="29" target-x="855" target-y="705.4"></path><path d="M 472.50 727.10 L 485.70 715.60 L 492.90 710.40 L 485.80 750.00 L 482.10 750.80 L 478.40 751.10 L 470.90 750.70 L 456.20 748.50 L 449.10 746.60 L 456.60 739.90 L 472.50 727.10 Z" fill="#c24e4f" fill-rule="nonzero" node-id="163" stroke="none" target-height="40.69995" target-width="43.799988" target-x="449.1" target-y="710.4"></path><path d="M 581.40 982.80 L 586.00 976.80 L 591.70 971.60 L 594.90 969.50 L 598.20 967.80 L 601.70 966.50 L 605.40 965.80 L 612.40 965.80 L 615.40 966.30 L 618.30 967.40 L 621.00 969.00 L 623.30 970.90 L 625.30 973.30 L 627.50 977.20 L 629.30 981.20 L 630.70 985.30 L 632.40 993.90 L 632.80 998.30 L 632.90 1004.90 L 631.50 1018.90 L 630.90 1033.80 L 631.30 1045.00 L 632.10 1056.30 L 634.20 1078.60 L 636.00 1090.60 L 641.00 1114.30 L 636.60 1116.20 L 631.90 1117.60 L 627.20 1118.50 L 622.30 1118.90 L 617.50 1118.70 L 612.70 1118.00 L 608.00 1116.80 L 603.50 1115.10 L 599.20 1112.70 L 596.30 1110.70 L 591.20 1105.90 L 587.90 1101.80 L 585.00 1097.30 L 579.90 1088.00 L 577.30 1082.10 L 575.10 1076.20 L 571.80 1063.80 L 569.90 1051.20 L 569.20 1041.60 L 568.90 1032.00 L 570.50 1014.90 L 572.60 1003.70 L 574.20 998.20 L 576.10 992.90 L 578.50 987.70 L 581.40 982.80 Z" fill="#c24e4f" fill-rule="nonzero" node-id="165" stroke="none" target-height="153.10004" target-width="72.099976" target-x="568.9" target-y="965.8"></path><path d="M 323.20 1002.60 L 323.40 998.80 L 324.10 995.00 L 325.30 991.30 L 326.90 987.70 L 328.90 984.40 L 331.20 981.30 L 333.80 978.40 L 336.70 975.80 L 339.90 973.50 L 343.30 971.60 L 346.80 970.20 L 350.50 969.10 L 354.30 968.50 L 358.10 968.50 L 362.10 969.00 L 367.00 970.30 L 371.70 972.20 L 376.20 974.50 L 380.50 977.20 L 384.50 980.30 L 401.20 996.10 L 432.10 1027.00 L 440.40 1036.90 L 446.20 1045.30 L 448.70 1049.80 L 452.00 1056.70 L 454.70 1063.90 L 456.80 1070.60 L 458.50 1077.50 L 459.60 1086.80 L 459.60 1091.60 L 454.20 1094.80 L 448.40 1097.40 L 444.50 1098.80 L 436.30 1100.60 L 432.10 1100.90 L 427.90 1100.70 L 423.70 1100.00 L 417.80 1098.20 L 412.10 1096.00 L 406.60 1093.30 L 398.70 1088.60 L 381.90 1077.10 L 372.90 1070.40 L 364.20 1063.30 L 355.90 1055.80 L 347.90 1047.90 L 340.40 1039.60 L 332.00 1028.50 L 327.30 1020.50 L 325.50 1016.20 L 324.20 1011.90 L 323.40 1007.40 L 323.20 1002.60 Z" fill="#c24e4f" fill-rule="nonzero" node-id="167" stroke="none" target-height="132.40002" target-width="136.4" target-x="323.2" target-y="968.5"></path><path d="M 766.80 249.40 L 780.70 253.80 L 794.40 258.70 L 808.00 264.10 L 821.40 270.00 L 817.40 276.70 L 813.10 283.10 L 808.20 282.00 L 803.40 280.50 L 793.50 275.90 L 788.80 273.20 L 784.20 270.10 L 779.90 266.70 L 776.00 262.90 L 772.40 258.80 L 769.40 254.30 L 766.80 249.40 Z" fill="#be9e86" fill-rule="nonzero" node-id="169" stroke="none" target-height="33.700012" target-width="54.600037" target-x="766.8" target-y="249.4"></path><path d="M 612.40 589.80 L 613.10 588.90 L 614.10 588.40 L 618.60 587.70 L 643.90 587.40 L 669.30 587.40 L 703.10 588.40 L 723.30 589.60 L 733.40 590.00 L 740.00 590.70 L 749.60 601.10 L 755.00 605.70 L 760.70 609.80 L 766.90 613.40 L 771.70 615.70 L 776.60 617.50 L 781.70 619.00 L 821.40 625.80 L 838.40 629.90 L 837.10 644.00 L 836.70 652.20 L 836.80 660.40 L 837.30 668.70 L 839.60 693.30 L 842.40 713.10 L 845.50 732.80 L 852.60 772.10 L 854.90 783.30 L 862.60 816.80 L 838.00 817.70 L 838.30 812.50 L 838.10 807.40 L 832.70 777.60 L 826.80 747.90 L 815.40 695.00 L 813.40 687.30 L 811.00 679.70 L 808.00 672.40 L 805.70 667.70 L 803.00 663.20 L 796.20 654.20 L 792.20 650.10 L 788.00 646.20 L 783.40 642.80 L 776.90 638.70 L 770.10 635.10 L 763.00 632.10 L 755.70 629.50 L 748.30 627.50 L 740.80 625.90 L 728.50 624.10 L 716.20 622.90 L 703.80 622.30 L 691.40 622.10 L 666.70 623.00 L 648.20 624.90 L 639.00 626.30 L 629.90 628.10 L 620.80 630.20 L 611.90 632.80 L 603.10 635.80 L 594.60 639.40 L 586.20 643.50 L 578.60 647.80 L 571.30 652.70 L 562.20 660.00 L 554.00 668.30 L 547.00 677.60 L 543.10 683.90 L 539.70 690.40 L 536.60 697.00 L 532.60 707.30 L 529.20 717.80 L 523.00 738.90 L 519.10 753.60 L 512.60 783.10 L 509.80 797.90 L 505.10 827.80 L 502.90 844.20 L 501.20 860.60 L 500.00 877.10 L 499.20 893.60 L 498.90 910.10 L 499.30 938.10 L 500.80 961.00 L 502.20 972.40 L 504.10 983.70 L 506.50 994.90 L 508.50 1002.10 L 511.00 1009.00 L 514.00 1015.80 L 517.50 1022.30 L 521.50 1028.60 L 525.90 1034.50 L 530.70 1040.10 L 535.90 1045.40 L 541.00 1049.80 L 546.50 1053.80 L 550.30 1056.20 L 554.30 1058.20 L 558.50 1059.90 L 559.40 1055.90 L 562.80 1072.90 L 564.30 1078.00 L 569.90 1093.20 L 562.00 1092.60 L 554.10 1091.60 L 538.40 1089.20 L 527.80 1086.70 L 517.60 1082.80 L 512.70 1080.40 L 508.00 1077.70 L 503.50 1074.50 L 499.30 1071.10 L 495.40 1067.30 L 491.80 1062.90 L 488.60 1058.40 L 483.10 1048.60 L 478.80 1038.30 L 476.30 1030.20 L 474.30 1022.10 L 473.00 1014.40 L 471.40 998.90 L 470.90 987.20 L 470.90 975.50 L 471.50 952.10 L 473.50 928.30 L 476.00 904.60 L 481.60 857.30 L 484.50 836.80 L 487.80 816.30 L 503.00 725.90 L 507.70 692.60 L 509.60 676.00 L 510.40 665.00 L 510.60 654.10 L 510.30 643.20 L 509.60 632.30 L 517.70 630.10 L 525.90 628.60 L 534.10 627.40 L 542.40 626.60 L 558.20 625.80 L 566.00 624.80 L 575.90 622.00 L 580.70 620.00 L 589.80 615.00 L 594.00 612.00 L 598.00 608.60 L 601.70 605.00 L 605.00 601.00 L 612.40 589.80 Z" fill="#be9e86" fill-rule="nonzero" node-id="171" stroke="none" target-height="505.79993" target-width="391.69998" target-x="470.9" target-y="587.4"></path><path d="M 491.50 599.90 L 512.90 596.80 L 534.30 594.10 L 555.80 591.90 L 594.50 588.90 L 600.30 588.90 L 597.90 593.00 L 595.10 596.70 L 591.90 600.20 L 588.40 603.40 L 584.70 606.30 L 576.40 611.00 L 567.60 614.30 L 561.70 615.50 L 555.70 616.20 L 537.60 617.10 L 516.90 620.40 L 502.30 623.40 L 487.90 626.90 L 464.00 633.90 L 460.70 634.40 L 454.30 634.30 L 447.90 634.90 L 435.20 637.20 L 412.90 642.80 L 403.20 645.70 L 393.60 648.90 L 384.30 652.70 L 378.30 655.70 L 372.40 659.00 L 363.10 665.70 L 356.40 672.30 L 350.80 679.90 L 348.50 684.00 L 346.60 688.30 L 345.10 692.70 L 344.00 697.30 L 343.50 702.10 L 343.60 706.70 L 344.30 711.30 L 345.50 715.80 L 347.10 720.20 L 349.20 724.40 L 351.80 728.40 L 354.70 732.00 L 361.30 738.40 L 368.70 743.40 L 374.70 746.50 L 380.90 749.00 L 393.90 752.80 L 404.90 755.30 L 416.10 757.30 L 427.30 758.90 L 442.50 760.20 L 446.40 760.00 L 454.10 758.70 L 469.30 760.40 L 484.50 762.60 L 483.60 767.70 L 475.00 768.20 L 457.60 767.50 L 443.20 766.40 L 428.90 764.90 L 419.30 763.60 L 400.50 759.90 L 391.20 757.40 L 382.00 754.40 L 373.00 751.00 L 367.30 748.40 L 356.10 742.50 L 350.90 738.90 L 344.60 733.40 L 338.40 725.80 L 333.60 717.80 L 330.90 711.00 L 330.00 707.40 L 329.60 703.70 L 329.80 694.90 L 330.60 690.00 L 332.00 685.20 L 333.80 680.60 L 336.10 676.20 L 341.90 668.00 L 348.70 660.70 L 355.70 654.60 L 363.00 648.90 L 370.70 643.60 L 378.60 638.60 L 394.80 629.50 L 406.60 623.80 L 418.70 618.60 L 426.90 615.50 L 435.20 612.70 L 443.70 610.40 L 467.50 604.60 L 479.40 602.00 L 491.50 599.90 Z" fill="#be9e86" fill-rule="nonzero" node-id="173" stroke="none" target-height="179.29999" target-width="270.69998" target-x="329.6" target-y="588.9"></path><path d="M 755.90 592.30 L 766.50 593.40 L 777.00 594.90 L 797.90 598.50 L 819.40 602.80 L 840.90 607.40 L 862.40 612.50 L 883.60 618.00 L 893.80 621.00 L 913.60 627.90 L 923.40 631.90 L 942.40 641.00 L 960.70 651.30 L 969.20 656.90 L 977.30 663.00 L 982.50 667.40 L 992.10 677.00 L 996.40 682.20 L 1000.20 687.80 L 1003.60 693.70 L 1005.50 697.70 L 1007.00 701.90 L 1008.10 706.30 L 1008.70 710.80 L 1008.80 715.20 L 1008.40 719.70 L 1007.60 724.10 L 1006.30 728.30 L 1004.40 732.40 L 1002.30 736.20 L 997.10 742.90 L 994.00 745.90 L 989.60 749.60 L 984.90 752.80 L 979.90 755.60 L 974.70 758.00 L 969.30 760.00 L 963.90 761.50 L 979.30 748.30 L 982.80 744.60 L 985.80 740.50 L 988.10 736.80 L 990.00 732.90 L 991.40 728.80 L 992.30 724.50 L 992.80 720.30 L 992.80 715.90 L 992.40 711.60 L 991.40 707.40 L 990.00 703.20 L 987.40 697.50 L 984.40 692.00 L 980.80 686.90 L 976.90 682.00 L 972.60 677.50 L 968.00 673.10 L 960.80 667.10 L 953.20 661.50 L 944.30 655.70 L 935.10 650.30 L 925.70 645.30 L 916.10 640.70 L 906.30 636.60 L 896.30 632.80 L 886.30 629.50 L 873.00 626.00 L 870.00 626.00 L 867.10 626.60 L 864.20 627.50 L 862.80 627.70 L 861.50 627.40 L 847.60 622.60 L 836.10 619.10 L 824.60 616.10 L 812.90 613.60 L 801.10 611.50 L 785.10 609.10 L 781.00 608.00 L 777.00 606.60 L 769.50 602.70 L 760.70 596.50 L 755.90 592.30 Z" fill="#be9e86" fill-rule="nonzero" node-id="175" stroke="none" target-height="169.20001" target-width="252.89996" target-x="755.9" target-y="592.3"></path><path d="M 944.40 699.90 L 947.60 712.10 L 948.50 718.50 L 949.00 724.90 L 948.40 733.30 L 947.60 737.40 L 946.30 741.30 L 944.50 745.10 L 939.80 752.30 L 937.10 755.30 L 934.10 758.10 L 929.20 761.90 L 924.00 765.30 L 913.30 771.50 L 928.30 770.40 L 918.50 772.20 L 898.60 773.80 L 872.40 774.40 L 863.70 774.00 L 861.80 763.60 L 868.00 762.40 L 880.60 761.10 L 892.90 758.50 L 899.00 756.90 L 904.90 754.90 L 910.70 752.50 L 916.30 749.60 L 924.20 744.10 L 931.30 737.40 L 934.50 733.70 L 937.30 729.80 L 939.70 725.60 L 941.70 721.20 L 943.30 716.60 L 944.20 712.50 L 944.50 708.30 L 944.40 699.90 Z" fill="#be9e86" fill-rule="nonzero" node-id="177" stroke="none" target-height="74.5" target-width="87.20001" target-x="861.8" target-y="699.9"></path><path d="M 569.90 760.90 L 575.20 760.40 L 580.70 760.40 L 584.30 760.70 L 591.20 762.20 L 594.50 763.50 L 597.60 765.30 L 600.50 767.60 L 602.50 769.90 L 603.10 771.30 L 603.60 773.60 L 603.40 775.90 L 602.70 778.20 L 601.40 780.10 L 599.40 782.10 L 594.70 785.10 L 590.90 786.50 L 586.70 787.40 L 578.40 788.20 L 570.80 787.80 L 563.30 786.50 L 559.70 785.40 L 556.30 783.60 L 552.60 780.30 L 551.10 778.10 L 550.30 775.80 L 550.10 774.20 L 550.30 772.60 L 551.00 771.00 L 554.10 767.10 L 556.00 765.60 L 559.20 763.90 L 562.70 762.50 L 569.90 760.90 Z" fill="#be9e86" fill-rule="nonzero" node-id="179" stroke="none" target-height="27.799988" target-width="53.5" target-x="550.1" target-y="760.4"></path><path d="M 771.20 764.90 L 776.50 764.40 L 781.90 764.50 L 789.00 765.50 L 795.60 767.80 L 798.70 769.50 L 801.60 771.70 L 803.80 774.20 L 804.50 775.70 L 805.10 779.00 L 804.30 782.30 L 803.50 783.70 L 799.40 787.20 L 796.40 788.90 L 793.10 790.10 L 789.70 790.90 L 782.60 791.60 L 771.90 791.50 L 768.00 791.10 L 763.90 790.30 L 758.70 788.30 L 754.30 785.40 L 752.50 783.40 L 750.40 779.80 L 750.30 777.20 L 750.80 775.30 L 753.10 771.90 L 757.10 769.10 L 759.80 767.80 L 766.90 765.70 L 771.20 764.90 Z" fill="#be9e86" fill-rule="nonzero" node-id="181" stroke="none" target-height="27.199951" target-width="54.799988" target-x="750.3" target-y="764.4"></path><path d="M 946.70 825.00 L 1009.60 824.40 L 1030.60 823.90 L 1040.50 830.90 L 1049.80 839.00 L 1026.10 839.50 L 990.50 839.50 L 978.60 839.70 L 969.30 840.50 L 960.00 840.80 L 922.60 840.80 L 903.90 841.90 L 887.30 842.10 L 827.60 842.20 L 817.90 841.60 L 803.60 827.80 L 870.70 826.90 L 883.30 826.30 L 934.00 825.60 L 946.70 825.00 Z" fill="#be9e86" fill-rule="nonzero" node-id="183" stroke="none" target-height="18.299988" target-width="246.20007" target-x="803.6" target-y="823.9"></path><path d="M 457.00 985.80 L 459.60 983.90 L 461.40 1008.20 L 463.60 1022.40 L 465.70 1031.80 L 469.50 1044.10 L 474.50 1055.90 L 477.60 1061.50 L 481.10 1066.80 L 485.00 1071.80 L 489.40 1076.40 L 494.30 1080.70 L 490.10 1081.10 L 486.10 1081.90 L 470.30 1086.60 L 469.20 1080.30 L 466.10 1067.90 L 461.90 1055.80 L 458.30 1047.40 L 457.70 1044.90 L 458.40 1031.80 L 458.40 1017.30 L 459.10 993.20 L 458.40 989.40 L 457.00 985.80 Z" fill="#be9e86" fill-rule="nonzero" node-id="185" stroke="none" target-height="102.69995" target-width="37.299988" target-x="457" target-y="983.9"></path><path d="M 640.90 1024.00 L 643.00 1025.80 L 642.10 1029.90 L 641.80 1038.20 L 642.80 1056.50 L 643.90 1066.50 L 645.80 1074.10 L 647.30 1077.70 L 649.20 1081.10 L 651.70 1084.30 L 654.70 1087.60 L 658.00 1090.30 L 661.60 1092.50 L 669.50 1095.90 L 673.80 1097.10 L 680.20 1098.30 L 693.30 1099.30 L 699.90 1099.10 L 713.10 1097.60 L 713.00 1106.10 L 702.70 1106.20 L 666.60 1107.80 L 661.20 1108.60 L 650.60 1110.80 L 648.30 1103.10 L 646.50 1095.20 L 645.20 1087.30 L 642.40 1063.30 L 640.90 1037.10 L 640.90 1024.00 Z" fill="#be9e86" fill-rule="nonzero" node-id="187" stroke="none" target-height="86.80005" target-width="72.19995" target-x="640.9" target-y="1024"></path><path d="M 792.10 829.90 L 800.10 836.90 L 807.60 844.50 L 806.50 849.90 L 801.70 865.60 L 781.40 938.60 L 761.60 1011.80 L 739.60 1095.80 L 739.20 1098.60 L 739.40 1103.60 L 740.70 1107.80 L 743.50 1113.90 L 736.20 1112.30 L 732.70 1110.90 L 729.20 1109.20 L 726.20 1107.10 L 723.40 1104.70 L 723.40 1100.70 L 723.90 1096.80 L 775.90 889.40 L 788.40 841.10 L 792.10 829.90 Z" fill="#6e7480" fill-rule="nonzero" node-id="189" stroke="none" target-height="284" target-width="84.19995" target-x="723.4" target-y="829.9"></path><path d="M 1049.80 839.00 L 1050.80 838.90 L 1054.10 843.60 L 1055.40 846.20 L 1056.30 848.90 L 1056.70 851.70 L 1056.50 854.70 L 1055.10 861.20 L 1049.50 880.50 L 1043.10 911.40 L 1042.50 912.90 L 1040.60 915.20 L 1032.60 920.80 L 1028.70 923.90 L 1021.60 931.10 L 1018.50 935.00 L 1015.70 939.10 L 1013.40 943.50 L 1011.50 948.10 L 1004.30 974.80 L 984.40 1055.20 L 975.90 1084.10 L 974.50 1087.00 L 972.80 1089.70 L 970.80 1092.10 L 965.90 1096.20 L 963.10 1097.80 L 957.10 1099.80 L 953.90 1100.30 L 917.70 1103.10 L 832.20 1108.30 L 815.80 1109.70 L 776.10 1111.40 L 756.30 1111.40 L 754.60 1111.10 L 753.20 1110.40 L 750.90 1108.10 L 749.90 1105.10 L 749.70 1096.50 L 750.00 1092.20 L 750.70 1088.00 L 755.70 1070.20 L 769.80 1016.50 L 799.90 906.80 L 815.80 851.30 L 817.90 841.60 L 827.60 842.20 L 887.30 842.10 L 903.90 841.90 L 922.60 840.80 L 960.00 840.80 L 978.60 839.70 L 990.50 839.50 L 1026.10 839.50 L 1049.80 839.00 Z M 833.80 851.50 L 831.30 852.30 L 829.00 853.30 L 826.90 854.80 L 824.20 857.50 L 821.80 860.70 L 819.90 864.10 L 818.40 867.60 L 813.10 884.90 L 811.70 890.70 L 811.60 894.20 L 812.10 895.80 L 813.90 898.60 L 816.70 900.80 L 818.30 901.40 L 825.00 902.00 L 845.60 902.00 L 851.10 901.20 L 854.40 899.70 L 857.90 896.60 L 860.80 892.10 L 863.70 884.50 L 869.60 864.00 L 870.10 860.80 L 870.20 855.70 L 869.50 854.20 L 868.50 852.90 L 867.20 851.90 L 865.60 851.30 L 848.90 851.10 L 833.80 851.50 Z M 1007.20 853.80 L 1005.70 854.50 L 1004.50 857.60 L 999.30 881.90 L 999.20 884.30 L 999.60 885.40 L 1000.50 886.30 L 1003.00 886.40 L 1004.40 885.70 L 1006.10 881.60 L 1011.10 859.20 L 1011.50 855.10 L 1010.70 854.10 L 1009.60 853.70 L 1007.20 853.80 Z M 1027.40 853.90 L 1023.50 868.90 L 1021.80 876.50 L 1020.60 884.10 L 1022.70 885.70 L 1025.20 884.90 L 1027.00 882.40 L 1028.70 876.80 L 1032.30 861.60 L 1032.80 857.80 L 1032.80 853.90 L 1027.40 853.90 Z M 982.10 855.30 L 977.30 877.90 L 976.60 884.20 L 976.70 887.40 L 980.50 887.40 L 981.70 887.10 L 982.90 884.70 L 983.80 882.20 L 989.00 856.10 L 987.40 855.20 L 985.70 854.90 L 982.10 855.30 Z M 769.80 1062.90 L 769.30 1067.00 L 782.70 1067.30 L 796.10 1066.60 L 802.00 1065.90 L 804.80 1064.70 L 806.50 1062.60 L 804.50 1061.60 L 802.30 1061.10 L 800.10 1060.90 L 789.40 1061.60 L 777.60 1061.90 L 769.80 1062.90 Z M 786.70 1076.70 L 768.90 1077.20 L 763.00 1077.70 L 763.00 1081.40 L 772.90 1081.80 L 782.80 1081.90 L 802.50 1080.80 L 803.30 1077.00 L 795.00 1076.50 L 786.70 1076.70 Z M 788.60 1095.20 L 774.30 1095.70 L 767.00 1096.80 L 765.90 1097.40 L 765.10 1098.60 L 765.60 1099.70 L 766.30 1100.50 L 768.30 1101.40 L 770.60 1101.80 L 774.70 1101.70 L 790.60 1100.50 L 794.20 1099.70 L 795.80 1098.80 L 797.00 1097.30 L 795.60 1095.70 L 793.30 1095.10 L 788.60 1095.20 Z" fill="#6e7480" fill-rule="nonzero" node-id="191" stroke="none" target-height="272.5" target-width="306.99994" target-x="749.7" target-y="838.9"></path></g></svg>